#N canvas 40 80 853 658 10;
#X obj 269 253 comport;
#X msg 269 182 ports;
#X obj 523 -154 list-replace;
#N canvas 662 108 341 328 list-creation 0;
#X obj 234 215 l;
#X obj 118 -15 t b b b;
#X obj 137 198 list append;
#X msg 236 81 231;
#X obj 137 85 until;
#X msg 137 119 0;
#X msg 38 82 126 6 1 2;
#X obj 137 235 outlet;
#X obj 118 -42 loadbang;
#X msg 137 53 513;
#X connect 0 0 2 1;
#X connect 1 0 6 0;
#X connect 1 1 9 0;
#X connect 1 2 3 0;
#X connect 2 0 0 0;
#X connect 2 0 7 0;
#X connect 3 0 2 0;
#X connect 4 0 5 0;
#X connect 5 0 2 0;
#X connect 6 0 2 0;
#X connect 8 0 1 0;
#X connect 9 0 4 0;
#X restore 670 -171 pd list-creation;
#X obj 626 -137 l;
#X obj 523 -218 r value;
#X obj 557 -191 r index;
#N canvas 0 25 1364 653 Construction 0;
#X obj 225 239 until;
#X obj 225 276 counter;
#X msg 461 426 clear;
#X obj 225 341 * 80;
#X obj 225 443 s pd-Console;
#X floatatom 240 114 5 0 0 0 - - -;
#X obj 225 165 f;
#X obj 240 140 bng 10 250 50 0 empty empty empty 17 7 0 10 -262144
-1 -1;
#X text 116 112 Number of sliders :;
#X text 152 136 Create them :;
#X obj 225 212 t f b b;
#X obj 225 313 t f f;
#X obj 225 372 pack f f;
#X msg 225 404 obj \$1 0 DMXlider \$2;
#X obj 270 330 + 1;
#X obj 338 195 init 4;
#X connect 0 0 1 0;
#X connect 1 0 11 0;
#X connect 2 0 4 0;
#X connect 3 0 12 0;
#X connect 5 0 6 1;
#X connect 6 0 10 0;
#X connect 7 0 6 0;
#X connect 10 0 0 0;
#X connect 10 1 1 2;
#X connect 10 2 2 0;
#X connect 11 0 3 0;
#X connect 11 1 14 0;
#X connect 12 0 13 0;
#X connect 13 0 4 0;
#X connect 14 0 12 1;
#X connect 15 0 5 0;
#X connect 15 0 10 0;
#X coords 0 -1 1 1 200 60 2 100 100;
#X restore 168 -221 pd Construction;
#N canvas 16 542 1364 292 Console 0;
#X obj 0 0 DMXlider 1;
#X obj 80 0 DMXlider 2;
#X obj 160 0 DMXlider 3;
#X obj 240 0 DMXlider 4;
#X obj 320 0 DMXlider 5;
#X obj 400 0 DMXlider 6;
#X obj 480 0 DMXlider 7;
#X obj 560 0 DMXlider 8;
#X obj 640 0 DMXlider 9;
#X obj 720 0 DMXlider 10;
#X restore 234 -146 pd Console;
#X obj 523 -118 resample 25;
#X text 522 -97 DMX steam is at 40 Hz;
#X obj 308 280 route ports;
#X obj 308 309 print Ports;
#X obj 175 1 vsl 15 128 0 255 0 0 empty empty empty 0 -9 0 10 -262144
-1 -1 0 1;
#X text 342 209 Pour ouvrir le port choisi;
#X text 196 121 0;
#X text 198 -6 255;
#X msg 175 142 126 6 2 0 0 \$1 231;
#X text 311 182 Pour lister les ports disponibles dans la console;
#X msg 335 236 close;
#X text 374 235 Pour fermer le port ouvert;
#X msg 296 209 open 6;
#X obj 305 1 vsl 15 128 0 255 0 0 empty empty empty 0 -9 0 10 -262144
-1 -1 0 1;
#X text 326 121 0;
#X text 328 -6 255;
#X obj 435 1 vsl 15 128 0 255 0 0 empty empty empty 0 -9 0 10 -262144
-1 -1 0 1;
#X text 456 121 0;
#X text 458 -6 255;
#X msg 435 142 126 6 2 0 0 \$1 231;
#X obj 565 1 vsl 15 128 0 255 0 0 empty empty empty 0 -9 0 10 -262144
-1 -1 0 1;
#X text 586 121 0;
#X text 588 -6 255;
#X msg 565 142 126 6 2 0 0 \$1 231;
#X msg 305 142 126 6 2 0 0 \$1 231;
#X connect 0 1 11 0;
#X connect 1 0 0 0;
#X connect 2 0 4 0;
#X connect 2 0 9 0;
#X connect 3 0 2 2;
#X connect 4 0 2 2;
#X connect 5 0 2 0;
#X connect 6 0 2 1;
#X connect 11 0 12 0;
#X connect 13 0 17 0;
#X connect 17 0 0 0;
#X connect 19 0 0 0;
#X connect 21 0 0 0;
#X connect 22 0 33 0;
#X connect 25 0 28 0;
#X connect 28 0 0 0;
#X connect 29 0 32 0;
#X connect 32 0 0 0;
#X connect 33 0 0 0;
