#N canvas 73 26 1846 984 16;
#X obj 624 83 metro 100;
#X obj 810 77 tgl 24 0 empty empty empty 0 -12 0 16 #fcfcfc #000000 #000000 0 1;
#X msg 681 116 2;
#X obj 622 155 counter 0 50;
#X obj 612 233 / 50;
#X obj 713 42 hsl 204 24 0 127 0 0 empty empty empty -2 -12 0 16 #fcfcfc #000000 #000000 0 1;
#X obj 972 50 r audio;
#X obj 886 129 * 100;
#X obj 986 84 * -1;
#X obj 988 119 + 1;
#X floatatom 988 153 5 0 0 0 - - - 0;
#X obj 747 110 loadbang;
#X obj 624 31 inlet;
#X obj 618 394 outlet;
#X floatatom 93 213 5 0 0 0 - - - 0;
#X floatatom 205 218 5 0 0 0 - - - 0;
#X floatatom 332 215 5 0 0 0 - - - 0;
#X obj 223 42 bng 24 250 50 0 empty empty empty 0 -12 0 16 #fcfcfc #000000 #000000;
#X obj 103 121 random 100;
#X obj 220 121 random 100;
#X obj 349 118 random 100;
#X obj 96 167 / 100;
#X obj 229 167 / 100;
#X obj 356 164 / 100;
#X obj 611 197 t f f;
#X obj 683 196 sel 0;
#X obj 601 332 pack f f f;
#X obj 607 292 *;
#X obj 668 289 *;
#X obj 726 285 *;
#X obj 880 174 mavg 10;
#X connect 0 0 3 0;
#X connect 1 0 0 0;
#X connect 2 0 3 1;
#X connect 3 0 24 0;
#X connect 4 0 27 0;
#X connect 4 0 28 0;
#X connect 4 0 29 0;
#X connect 5 0 0 1;
#X connect 6 0 8 0;
#X connect 7 0 30 0;
#X connect 8 0 9 0;
#X connect 9 0 10 0;
#X connect 10 0 7 0;
#X connect 11 0 2 0;
#X connect 12 0 0 0;
#X connect 14 0 27 1;
#X connect 15 0 28 1;
#X connect 16 0 29 1;
#X connect 17 0 18 0;
#X connect 17 0 19 0;
#X connect 17 0 20 0;
#X connect 18 0 21 0;
#X connect 19 0 22 0;
#X connect 20 0 23 0;
#X connect 21 0 14 0;
#X connect 22 0 15 0;
#X connect 23 0 16 0;
#X connect 24 0 4 0;
#X connect 24 1 25 0;
#X connect 25 0 17 0;
#X connect 26 0 13 0;
#X connect 27 0 26 0;
#X connect 28 0 26 1;
#X connect 29 0 26 2;
#X connect 30 0 5 0;
