#N canvas 234 234 450 300 12;
#X floatatom 91 197 5 0 0 0 - - - 0;
#X floatatom 205 218 5 0 0 0 - - - 0;
#X floatatom 332 215 5 0 0 0 - - - 0;
#X obj 223 42 bng 24 250 50 0 empty empty empty 0 -12 0 16 #fcfcfc #000000 #000000;
#X obj 221 6 inlet;
#X obj 296 414 outlet;
#X obj 103 121 random 2;
#X obj 220 121 random 2;
#X obj 349 118 random 2;
#X obj 169 76 t b b b, f 12;
#X obj 262 265 +;
#X obj 105 265 +;
#X obj 133 316 sel 0;
#X msg 123 355 1 1 1;
#X obj 203 303 f;
#X obj 224 338 pack f f f;
#X obj 191 343 bng 24 250 50 0 empty empty empty 0 -12 0 16 #fcfcfc #000000 #000000;
#X obj 65 225 t f f;
#X connect 0 0 17 0;
#X connect 1 0 10 0;
#X connect 1 0 15 1;
#X connect 2 0 10 1;
#X connect 2 0 15 2;
#X connect 3 0 9 0;
#X connect 4 0 3 0;
#X connect 6 0 0 0;
#X connect 7 0 1 0;
#X connect 8 0 2 0;
#X connect 9 0 6 0;
#X connect 9 1 7 0;
#X connect 9 2 8 0;
#X connect 10 0 11 1;
#X connect 11 0 12 0;
#X connect 12 0 13 0;
#X connect 12 1 16 0;
#X connect 13 0 5 0;
#X connect 14 0 15 0;
#X connect 15 0 5 0;
#X connect 16 0 14 0;
#X connect 17 0 11 0;
#X connect 17 1 14 1;
