#N canvas 208 0 1557 980 12;
#X obj 31 18 r l1;
#X obj 30 44 unpack f f f;
#X msg 23 167 1 \$1 \, 2 \$2 \, 3 \$3;
#X obj 25 201 s soundLightvalues;
#X obj 24 76 * 255;
#X obj 24 106 int;
#X obj 68 79 * 255;
#X obj 68 109 int;
#X obj 118 78 * 255;
#X obj 118 108 int;
#X obj 22 141 pack f f f;
#X obj 175 45 unpack f f f;
#X obj 170 202 s soundLightvalues;
#X obj 169 77 * 255;
#X obj 169 107 int;
#X obj 213 80 * 255;
#X obj 213 110 int;
#X obj 263 79 * 255;
#X obj 263 109 int;
#X obj 167 142 pack f f f;
#X obj 330 49 unpack f f f;
#X obj 325 206 s soundLightvalues;
#X obj 324 81 * 255;
#X obj 324 111 int;
#X obj 368 84 * 255;
#X obj 368 114 int;
#X obj 418 83 * 255;
#X obj 418 113 int;
#X obj 322 146 pack f f f;
#X obj 475 53 unpack f f f;
#X obj 470 210 s soundLightvalues;
#X obj 469 85 * 255;
#X obj 469 115 int;
#X obj 513 88 * 255;
#X obj 513 118 int;
#X obj 563 87 * 255;
#X obj 563 117 int;
#X obj 467 150 pack f f f;
#X obj 624 56 unpack f f f;
#X obj 619 213 s soundLightvalues;
#X obj 618 88 * 255;
#X obj 618 118 int;
#X obj 662 91 * 255;
#X obj 662 121 int;
#X obj 712 90 * 255;
#X obj 712 120 int;
#X obj 616 153 pack f f f;
#X obj 786 55 unpack f f f;
#X obj 781 212 s soundLightvalues;
#X obj 780 87 * 255;
#X obj 780 117 int;
#X obj 824 90 * 255;
#X obj 824 120 int;
#X obj 874 89 * 255;
#X obj 874 119 int;
#X obj 778 152 pack f f f;
#X obj 953 59 unpack f f f;
#X obj 948 216 s soundLightvalues;
#X obj 947 91 * 255;
#X obj 947 121 int;
#X obj 991 94 * 255;
#X obj 991 124 int;
#X obj 1041 93 * 255;
#X obj 1041 123 int;
#X obj 945 156 pack f f f;
#X obj 28 276 unpack f f f;
#X obj 23 433 s soundLightvalues;
#X obj 22 308 * 255;
#X obj 22 338 int;
#X obj 66 311 * 255;
#X obj 66 341 int;
#X obj 116 310 * 255;
#X obj 116 340 int;
#X obj 20 373 pack f f f;
#X obj 173 277 unpack f f f;
#X obj 168 434 s soundLightvalues;
#X obj 167 309 * 255;
#X obj 167 339 int;
#X obj 211 312 * 255;
#X obj 211 342 int;
#X obj 261 311 * 255;
#X obj 261 341 int;
#X obj 165 374 pack f f f;
#X obj 328 281 unpack f f f;
#X obj 323 438 s soundLightvalues;
#X obj 322 313 * 255;
#X obj 322 343 int;
#X obj 366 316 * 255;
#X obj 366 346 int;
#X obj 416 315 * 255;
#X obj 416 345 int;
#X obj 320 378 pack f f f;
#X obj 473 285 unpack f f f;
#X obj 468 442 s soundLightvalues;
#X obj 467 317 * 255;
#X obj 467 347 int;
#X obj 511 320 * 255;
#X obj 511 350 int;
#X obj 561 319 * 255;
#X obj 561 349 int;
#X obj 465 382 pack f f f;
#X obj 622 288 unpack f f f;
#X obj 617 445 s soundLightvalues;
#X obj 616 320 * 255;
#X obj 616 350 int;
#X obj 660 323 * 255;
#X obj 660 353 int;
#X obj 710 322 * 255;
#X obj 710 352 int;
#X obj 614 385 pack f f f;
#X obj 784 287 unpack f f f;
#X obj 779 444 s soundLightvalues;
#X obj 778 319 * 255;
#X obj 778 349 int;
#X obj 822 322 * 255;
#X obj 822 352 int;
#X obj 872 321 * 255;
#X obj 872 351 int;
#X obj 776 384 pack f f f;
#X obj 176 19 r l2;
#X obj 331 23 r l3;
#X obj 476 27 r l4;
#X obj 625 30 r l5;
#X obj 787 29 r l6;
#X obj 954 33 r l7;
#X obj 29 250 r l8;
#X obj 174 251 r l9;
#X obj 329 255 r l10;
#X obj 474 259 r l11;
#X msg 168 168 4 \$1 \, 5 \$2 \, 6 \$3;
#X msg 323 172 7 \$1 \, 8 \$2 \, 9 \$3;
#X msg 468 176 10 \$1 \, 11 \$2 \, 12 \$3;
#X msg 617 179 13 \$1 \, 14 \$2 \, 15 \$3;
#X msg 779 178 16 \$1 \, 17 \$2 \, 18 \$3;
#X msg 946 182 19 \$1 \, 20 \$2 \, 21 \$3;
#X msg 21 399 22 \$1 \, 23 \$2 \, 24 \$3;
#X msg 166 400 25 \$1 \, 26 \$2 \, 27 \$3;
#X msg 321 404 28 \$1 \, 29 \$2 \, 30 \$3;
#X msg 466 408 31 \$1 \, 32 \$2 \, 33 \$3;
#X msg 615 411 34 \$1 \, 35 \$2 \, 36 \$3;
#X msg 777 410 37 \$1 \, 38 \$2 \, 39 \$3;
#X obj 623 262 r l12;
#X obj 785 261 r l13;
#X connect 0 0 1 0;
#X connect 1 0 4 0;
#X connect 1 1 6 0;
#X connect 1 2 8 0;
#X connect 2 0 3 0;
#X connect 4 0 5 0;
#X connect 5 0 10 0;
#X connect 6 0 7 0;
#X connect 7 0 10 1;
#X connect 8 0 9 0;
#X connect 9 0 10 2;
#X connect 10 0 2 0;
#X connect 11 0 13 0;
#X connect 11 1 15 0;
#X connect 11 2 17 0;
#X connect 13 0 14 0;
#X connect 14 0 19 0;
#X connect 15 0 16 0;
#X connect 16 0 19 1;
#X connect 17 0 18 0;
#X connect 18 0 19 2;
#X connect 19 0 129 0;
#X connect 20 0 22 0;
#X connect 20 1 24 0;
#X connect 20 2 26 0;
#X connect 22 0 23 0;
#X connect 23 0 28 0;
#X connect 24 0 25 0;
#X connect 25 0 28 1;
#X connect 26 0 27 0;
#X connect 27 0 28 2;
#X connect 28 0 130 0;
#X connect 29 0 31 0;
#X connect 29 1 33 0;
#X connect 29 2 35 0;
#X connect 31 0 32 0;
#X connect 32 0 37 0;
#X connect 33 0 34 0;
#X connect 34 0 37 1;
#X connect 35 0 36 0;
#X connect 36 0 37 2;
#X connect 37 0 131 0;
#X connect 38 0 40 0;
#X connect 38 1 42 0;
#X connect 38 2 44 0;
#X connect 40 0 41 0;
#X connect 41 0 46 0;
#X connect 42 0 43 0;
#X connect 43 0 46 1;
#X connect 44 0 45 0;
#X connect 45 0 46 2;
#X connect 46 0 132 0;
#X connect 47 0 49 0;
#X connect 47 1 51 0;
#X connect 47 2 53 0;
#X connect 49 0 50 0;
#X connect 50 0 55 0;
#X connect 51 0 52 0;
#X connect 52 0 55 1;
#X connect 53 0 54 0;
#X connect 54 0 55 2;
#X connect 55 0 133 0;
#X connect 56 0 58 0;
#X connect 56 1 60 0;
#X connect 56 2 62 0;
#X connect 58 0 59 0;
#X connect 59 0 64 0;
#X connect 60 0 61 0;
#X connect 61 0 64 1;
#X connect 62 0 63 0;
#X connect 63 0 64 2;
#X connect 64 0 134 0;
#X connect 65 0 67 0;
#X connect 65 1 69 0;
#X connect 65 2 71 0;
#X connect 67 0 68 0;
#X connect 68 0 73 0;
#X connect 69 0 70 0;
#X connect 70 0 73 1;
#X connect 71 0 72 0;
#X connect 72 0 73 2;
#X connect 73 0 135 0;
#X connect 74 0 76 0;
#X connect 74 1 78 0;
#X connect 74 2 80 0;
#X connect 76 0 77 0;
#X connect 77 0 82 0;
#X connect 78 0 79 0;
#X connect 79 0 82 1;
#X connect 80 0 81 0;
#X connect 81 0 82 2;
#X connect 82 0 136 0;
#X connect 83 0 85 0;
#X connect 83 1 87 0;
#X connect 83 2 89 0;
#X connect 85 0 86 0;
#X connect 86 0 91 0;
#X connect 87 0 88 0;
#X connect 88 0 91 1;
#X connect 89 0 90 0;
#X connect 90 0 91 2;
#X connect 91 0 137 0;
#X connect 92 0 94 0;
#X connect 92 1 96 0;
#X connect 92 2 98 0;
#X connect 94 0 95 0;
#X connect 95 0 100 0;
#X connect 96 0 97 0;
#X connect 97 0 100 1;
#X connect 98 0 99 0;
#X connect 99 0 100 2;
#X connect 100 0 138 0;
#X connect 101 0 103 0;
#X connect 101 1 105 0;
#X connect 101 2 107 0;
#X connect 103 0 104 0;
#X connect 104 0 109 0;
#X connect 105 0 106 0;
#X connect 106 0 109 1;
#X connect 107 0 108 0;
#X connect 108 0 109 2;
#X connect 109 0 139 0;
#X connect 110 0 112 0;
#X connect 110 1 114 0;
#X connect 110 2 116 0;
#X connect 112 0 113 0;
#X connect 113 0 118 0;
#X connect 114 0 115 0;
#X connect 115 0 118 1;
#X connect 116 0 117 0;
#X connect 117 0 118 2;
#X connect 118 0 140 0;
#X connect 119 0 11 0;
#X connect 120 0 20 0;
#X connect 121 0 29 0;
#X connect 122 0 38 0;
#X connect 123 0 47 0;
#X connect 124 0 56 0;
#X connect 125 0 65 0;
#X connect 126 0 74 0;
#X connect 127 0 83 0;
#X connect 128 0 92 0;
#X connect 129 0 12 0;
#X connect 130 0 21 0;
#X connect 131 0 30 0;
#X connect 132 0 39 0;
#X connect 133 0 48 0;
#X connect 134 0 57 0;
#X connect 135 0 66 0;
#X connect 136 0 75 0;
#X connect 137 0 84 0;
#X connect 138 0 93 0;
#X connect 139 0 102 0;
#X connect 140 0 111 0;
#X connect 141 0 101 0;
#X connect 142 0 110 0;
