#N canvas 73 26 1846 984 16;
#X obj 48 -26 gemhead;
#X obj 58 52 colorRGB 1 0 0;
#X obj 59 114 colorRGB 0 0 0;
#X obj 53 14 translateXYZ \$1 \$2 0;
#X obj 57 83 circle \$3;
#X obj 60 136 circle \$4;
#X obj 888 58 inlet;
#X text 105 203 This version modulates intensity here;
#X obj 814 44 f;
#X obj 716 -4 r audio;
#X obj 711 33 t f b, f 7;
#X obj 763 73 *;
#X obj 699 72 inlet;
#X obj 625 58 f;
#X obj 527 10 r audio;
#X obj 522 47 t f b, f 7;
#X obj 574 87 *;
#X obj 502 75 inlet;
#X obj 428 61 f;
#X obj 330 13 r audio;
#X obj 325 50 t f b, f 7;
#X obj 377 90 *;
#X connect 0 0 3 0;
#X connect 1 0 4 0;
#X connect 2 0 5 0;
#X connect 3 0 1 0;
#X connect 4 0 2 0;
#X connect 6 0 8 1;
#X connect 8 0 11 1;
#X connect 9 0 10 0;
#X connect 10 0 11 0;
#X connect 10 1 8 0;
#X connect 11 0 1 3;
#X connect 12 0 13 1;
#X connect 13 0 16 1;
#X connect 14 0 15 0;
#X connect 15 0 16 0;
#X connect 15 1 13 0;
#X connect 16 0 1 2;
#X connect 17 0 18 1;
#X connect 18 0 21 1;
#X connect 19 0 20 0;
#X connect 20 0 21 0;
#X connect 20 1 18 0;
#X connect 21 0 1 1;
