#N canvas 865 592 450 300 16;
#X obj 48 -26 gemhead;
#X obj 58 52 colorRGB 1 0 0;
#X obj 59 114 colorRGB 0 0 0;
#X obj 53 14 translateXYZ \$1 \$2 0;
#X obj 57 83 circle \$3;
#X obj 60 136 circle \$4;
#X obj 218 85 inlet;
#X obj 312 84 inlet;
#X obj 379 48 inlet;
#X connect 0 0 3 0;
#X connect 1 0 4 0;
#X connect 2 0 5 0;
#X connect 3 0 1 0;
#X connect 4 0 2 0;
#X connect 6 0 1 1;
#X connect 7 0 1 2;
#X connect 8 0 1 3;
