#N canvas 73 26 1846 984 16;
#X obj 1092 693 cnv 15 100 60 empty empty empty 20 12 0 14 #bcbcbc #404040 0;
#N canvas 0 22 450 300 gemwin 0;
#X obj 132 136 gemwin;
#X obj 67 89 outlet;
#X obj 67 10 inlet;
#X obj 67 41 route create;
#X msg 67 70 set destroy;
#X msg 142 68 set create;
#X msg 198 112 destroy;
#X msg 132 112 create \, 1;
#X connect 2 0 3 0;
#X connect 3 0 4 0;
#X connect 3 0 7 0;
#X connect 3 1 5 0;
#X connect 3 1 6 0;
#X connect 4 0 1 0;
#X connect 5 0 1 0;
#X connect 6 0 0 0;
#X connect 7 0 0 0;
#X restore 1097 732 pd gemwin;
#X msg 1097 713 destroy;
#X obj 764 150 env~ 1024;
#X obj 856 119 abs~;
#X obj 856 184 snapshot~;
#X obj 856 217 rmstodb;
#X obj 844 283 vu 18 160 empty VU -20 20 0 12 #404040 #000000 1 0;
#X obj 856 149 slop~ 0 0 0 0 1e+09;
#X obj 764 184 t f b;
#X obj 764 225 - 100;
#X obj 856 242 - 100;
#X text 914 119 hz;
#X obj 815 32 adc~;
#X floatatom 959 204 5 0 0 0 - - - 0;
#X obj 966 44 loadbang;
#X obj 995 392 s audio;
#N canvas 73 26 1846 984 colourToEachLight 0;
#X obj 142 164 s r1;
#X obj 190 165 s g1;
#X obj 242 164 s b1;
#X obj 893 259 router 13 0, f 39;
#X obj -1 160 unpack f f f;
#X obj 1 195 unpack f f f;
#X obj 1 229 unpack f f f;
#X obj 3 264 unpack f f f;
#X obj 0 296 unpack f f f;
#X obj 2 331 unpack f f f;
#X obj 2 365 unpack f f f;
#X obj 4 400 unpack f f f;
#X obj 8 431 unpack f f f;
#X obj 5 463 unpack f f f;
#X obj 7 498 unpack f f f;
#X obj 7 532 unpack f f f;
#X obj 9 567 unpack f f f;
#X obj 657 263 counter 12;
#X obj 683 127 metro 200;
#X floatatom 727 317 5 0 0 0 - - - 0;
#X obj 686 93 tgl 24 0 empty empty empty 0 -12 0 16 #fcfcfc #000000 #000000 0 1;
#X obj 144 199 s r2;
#X obj 192 200 s g2;
#X obj 244 199 s b2;
#X obj 144 233 s r3;
#X obj 192 234 s g3;
#X obj 244 233 s b3;
#X obj 146 268 s r4;
#X obj 194 269 s g4;
#X obj 246 268 s b4;
#X obj 143 300 s r5;
#X obj 191 301 s g5;
#X obj 243 300 s b5;
#X obj 145 335 s r6;
#X obj 193 336 s g6;
#X obj 245 335 s b6;
#X obj 145 369 s r7;
#X obj 193 370 s g7;
#X obj 245 369 s b7;
#X obj 147 404 s r8;
#X obj 195 405 s g8;
#X obj 247 400 s b8;
#X obj 151 435 s r9;
#X obj 199 436 s g9;
#X obj 251 435 s b9;
#X obj 148 467 s r10;
#X obj 196 468 s g10;
#X obj 248 467 s b10;
#X obj 150 502 s r11;
#X obj 198 503 s g11;
#X obj 250 502 s b11;
#X obj 150 536 s r12;
#X obj 198 537 s g12;
#X obj 250 536 s b12;
#X obj 152 571 s r13;
#X obj 200 572 s g13;
#X obj 252 571 s b13;
#X obj 685 185 t b b;
#X obj 784 86 loadbang;
#X obj 371 445 unpack f f f;
#X obj 428 414 r audio;
#X obj 366 485 *;
#X obj 423 486 *;
#X obj 477 486 *;
#X obj 359 530 pack f f f;
#X obj 357 562 s l1;
#X obj 534 452 unpack f f f;
#X obj 546 416 r audio;
#X obj 529 492 *;
#X obj 586 493 *;
#X obj 640 493 *;
#X obj 522 537 pack f f f;
#X obj 698 454 unpack f f f;
#X obj 755 423 r audio;
#X obj 693 494 *;
#X obj 750 495 *;
#X obj 804 495 *;
#X obj 686 539 pack f f f;
#X obj 861 461 unpack f f f;
#X obj 873 425 r audio;
#X obj 856 501 *;
#X obj 913 502 *;
#X obj 967 502 *;
#X obj 849 546 pack f f f;
#X obj 1059 448 unpack f f f;
#X obj 1071 412 r audio;
#X obj 1054 488 *;
#X obj 1111 489 *;
#X obj 1165 489 *;
#X obj 1047 533 pack f f f;
#X obj 1223 450 unpack f f f;
#X obj 1280 419 r audio;
#X obj 1218 490 *;
#X obj 1275 491 *;
#X obj 1329 491 *;
#X obj 1211 535 pack f f f;
#X obj 1386 457 unpack f f f;
#X obj 1398 421 r audio;
#X obj 1381 497 *;
#X obj 1438 498 *;
#X obj 1492 498 *;
#X obj 1374 542 pack f f f;
#X obj 391 647 unpack f f f;
#X obj 403 611 r audio;
#X obj 386 687 *;
#X obj 443 688 *;
#X obj 497 688 *;
#X obj 379 732 pack f f f;
#X obj 555 649 unpack f f f;
#X obj 612 618 r audio;
#X obj 550 689 *;
#X obj 607 690 *;
#X obj 661 690 *;
#X obj 543 734 pack f f f;
#X obj 718 656 unpack f f f;
#X obj 730 620 r audio;
#X obj 713 696 *;
#X obj 770 697 *;
#X obj 824 697 *;
#X obj 706 741 pack f f f;
#X obj 916 643 unpack f f f;
#X obj 928 607 r audio;
#X obj 911 683 *;
#X obj 968 684 *;
#X obj 1022 684 *;
#X obj 904 728 pack f f f;
#X obj 1080 645 unpack f f f;
#X obj 1137 614 r audio;
#X obj 1075 685 *;
#X obj 1132 686 *;
#X obj 1186 686 *;
#X obj 1068 730 pack f f f;
#X obj 1243 652 unpack f f f;
#X obj 1255 616 r audio;
#X obj 1238 692 *;
#X obj 1295 693 *;
#X obj 1349 693 *;
#X obj 1231 737 pack f f f;
#X obj 520 569 s l2;
#X obj 684 571 s l3;
#X obj 847 578 s l4;
#X obj 1045 565 s l5;
#X obj 1209 567 s l6;
#X obj 1372 574 s l7;
#X obj 377 764 s l8;
#X obj 541 766 s l9;
#X obj 704 773 s l10;
#X obj 902 760 s l11;
#X obj 1066 762 s l12;
#X obj 1229 769 s l13;
#X obj 461 104 RandomColour;
#X connect 3 0 4 0;
#X connect 3 0 59 0;
#X connect 3 1 5 0;
#X connect 3 1 66 0;
#X connect 3 2 6 0;
#X connect 3 2 72 0;
#X connect 3 3 7 0;
#X connect 3 3 78 0;
#X connect 3 4 8 0;
#X connect 3 4 84 0;
#X connect 3 5 9 0;
#X connect 3 5 90 0;
#X connect 3 6 10 0;
#X connect 3 6 96 0;
#X connect 3 7 11 0;
#X connect 3 7 102 0;
#X connect 3 8 12 0;
#X connect 3 8 108 0;
#X connect 3 9 13 0;
#X connect 3 9 114 0;
#X connect 3 10 14 0;
#X connect 3 10 120 0;
#X connect 3 11 15 0;
#X connect 3 11 126 0;
#X connect 3 12 16 0;
#X connect 3 12 132 0;
#X connect 4 0 0 0;
#X connect 4 1 1 0;
#X connect 4 2 2 0;
#X connect 5 0 21 0;
#X connect 5 1 22 0;
#X connect 5 2 23 0;
#X connect 6 0 24 0;
#X connect 6 1 25 0;
#X connect 6 2 26 0;
#X connect 7 0 27 0;
#X connect 7 1 28 0;
#X connect 7 2 29 0;
#X connect 8 0 30 0;
#X connect 8 1 31 0;
#X connect 8 2 32 0;
#X connect 9 0 33 0;
#X connect 9 1 34 0;
#X connect 9 2 35 0;
#X connect 10 0 36 0;
#X connect 10 1 37 0;
#X connect 10 2 38 0;
#X connect 11 0 39 0;
#X connect 11 1 40 0;
#X connect 11 2 41 0;
#X connect 12 0 42 0;
#X connect 12 1 43 0;
#X connect 12 2 44 0;
#X connect 13 0 45 0;
#X connect 13 1 46 0;
#X connect 13 2 47 0;
#X connect 14 0 48 0;
#X connect 14 1 49 0;
#X connect 14 2 50 0;
#X connect 15 0 51 0;
#X connect 15 1 52 0;
#X connect 15 2 53 0;
#X connect 16 0 54 0;
#X connect 16 1 55 0;
#X connect 16 2 56 0;
#X connect 17 0 3 1;
#X connect 17 0 19 0;
#X connect 18 0 57 0;
#X connect 20 0 18 0;
#X connect 57 0 17 0;
#X connect 57 1 150 0;
#X connect 58 0 20 0;
#X connect 59 0 61 1;
#X connect 59 1 62 1;
#X connect 59 2 63 1;
#X connect 60 0 63 0;
#X connect 60 0 62 0;
#X connect 60 0 61 0;
#X connect 61 0 64 0;
#X connect 62 0 64 1;
#X connect 63 0 64 2;
#X connect 64 0 65 0;
#X connect 66 0 68 1;
#X connect 66 1 69 1;
#X connect 66 2 70 1;
#X connect 67 0 70 0;
#X connect 67 0 69 0;
#X connect 67 0 68 0;
#X connect 68 0 71 0;
#X connect 69 0 71 1;
#X connect 70 0 71 2;
#X connect 71 0 138 0;
#X connect 72 0 74 1;
#X connect 72 1 75 1;
#X connect 72 2 76 1;
#X connect 73 0 76 0;
#X connect 73 0 75 0;
#X connect 73 0 74 0;
#X connect 74 0 77 0;
#X connect 75 0 77 1;
#X connect 76 0 77 2;
#X connect 77 0 139 0;
#X connect 78 0 80 1;
#X connect 78 1 81 1;
#X connect 78 2 82 1;
#X connect 79 0 82 0;
#X connect 79 0 81 0;
#X connect 79 0 80 0;
#X connect 80 0 83 0;
#X connect 81 0 83 1;
#X connect 82 0 83 2;
#X connect 83 0 140 0;
#X connect 84 0 86 1;
#X connect 84 1 87 1;
#X connect 84 2 88 1;
#X connect 85 0 88 0;
#X connect 85 0 87 0;
#X connect 85 0 86 0;
#X connect 86 0 89 0;
#X connect 87 0 89 1;
#X connect 88 0 89 2;
#X connect 89 0 141 0;
#X connect 90 0 92 1;
#X connect 90 1 93 1;
#X connect 90 2 94 1;
#X connect 91 0 94 0;
#X connect 91 0 93 0;
#X connect 91 0 92 0;
#X connect 92 0 95 0;
#X connect 93 0 95 1;
#X connect 94 0 95 2;
#X connect 95 0 142 0;
#X connect 96 0 98 1;
#X connect 96 1 99 1;
#X connect 96 2 100 1;
#X connect 97 0 100 0;
#X connect 97 0 99 0;
#X connect 97 0 98 0;
#X connect 98 0 101 0;
#X connect 99 0 101 1;
#X connect 100 0 101 2;
#X connect 101 0 143 0;
#X connect 102 0 104 1;
#X connect 102 1 105 1;
#X connect 102 2 106 1;
#X connect 103 0 106 0;
#X connect 103 0 105 0;
#X connect 103 0 104 0;
#X connect 104 0 107 0;
#X connect 105 0 107 1;
#X connect 106 0 107 2;
#X connect 107 0 144 0;
#X connect 108 0 110 1;
#X connect 108 1 111 1;
#X connect 108 2 112 1;
#X connect 109 0 112 0;
#X connect 109 0 111 0;
#X connect 109 0 110 0;
#X connect 110 0 113 0;
#X connect 111 0 113 1;
#X connect 112 0 113 2;
#X connect 113 0 145 0;
#X connect 114 0 116 1;
#X connect 114 1 117 1;
#X connect 114 2 118 1;
#X connect 115 0 118 0;
#X connect 115 0 117 0;
#X connect 115 0 116 0;
#X connect 116 0 119 0;
#X connect 117 0 119 1;
#X connect 118 0 119 2;
#X connect 119 0 146 0;
#X connect 120 0 122 1;
#X connect 120 1 123 1;
#X connect 120 2 124 1;
#X connect 121 0 124 0;
#X connect 121 0 123 0;
#X connect 121 0 122 0;
#X connect 122 0 125 0;
#X connect 123 0 125 1;
#X connect 124 0 125 2;
#X connect 125 0 147 0;
#X connect 126 0 128 1;
#X connect 126 1 129 1;
#X connect 126 2 130 1;
#X connect 127 0 130 0;
#X connect 127 0 129 0;
#X connect 127 0 128 0;
#X connect 128 0 131 0;
#X connect 129 0 131 1;
#X connect 130 0 131 2;
#X connect 131 0 148 0;
#X connect 132 0 134 1;
#X connect 132 1 135 1;
#X connect 132 2 136 1;
#X connect 133 0 136 0;
#X connect 133 0 135 0;
#X connect 133 0 134 0;
#X connect 134 0 137 0;
#X connect 135 0 137 1;
#X connect 136 0 137 2;
#X connect 137 0 149 0;
#X connect 150 0 3 0;
#X restore 1183 215 pd colourToEachLight;
#X obj 1184 246 sendToDMX;
#X obj 456 190 pp.dynamics~;
#A saved empty_slot \; empty_slot \; empty_slot \; empty_slot \; empty_slot \; empty_slot \; empty_slot \; empty_slot \; empty_slot \; empty_slot \; empty_slot \; empty_slot \; empty_slot \; empty_slot \; empty_slot \; empty_slot \; empty_slot \; empty_slot \; empty_slot \; empty_slot \; empty_slot \;;
#X obj 458 137 demux~;
#X obj 466 90 tgl 24 0 empty empty empty 0 -12 0 16 #fcfcfc #000000 #000000 0 1;
#X text 657 523 %;
#X text 657 440 %;
#X msg 606 379 release 90;
#X msg 605 445 compression 100;
#X msg 605 484 threshold-expand -100;
#X msg 609 519 expansion 17.1;
#X msg 611 553 gain 9;
#X obj 610 334 loadbang;
#X obj 1181 184 WinterfestDMX;
#X msg 1349 56 \; pd dsp 1 \;;
#X obj 1351 18 loadbang;
#X obj 1105 353 hsl 204 24 0 1000 0 0 empty empty empty -2 -12 0 16 #fcfcfc #000000 #000000 0 1;
#X msg 603 411 threshold-compress 0;
#X obj 824 76 +~;
#X floatatom 1119 383 5 0 0 0 - - - 0;
#X obj 989 348 mavg 20;
#X msg 963 74 2;
#X text 55 687 This patch changes intensity of all lights with sound and colors are randomly chosen as primary colors;
#X text 1084 662 Create Gem window:;
#N canvas 130 130 450 300 GemWindow 0;
#X obj 339 475 r b9;
#X obj 201 474 r g9;
#X obj 63 471 r r9;
#X obj 71 199 singleLight -4 3.5 0.45 0.35;
#X obj 416 184 singleLight 0 3.5 0.45 0.35;
#X obj 408 259 singleLight 0 2.5 0.45 0.35;
#X obj 70 271 singleLight -4 2.5 0.45 0.35;
#X obj 72 342 singleLight -4 1.5 0.45 0.35;
#X obj 415 325 singleLight 0 1.5 0.45 0.35;
#X obj 61 432 singleLight -4 0.5 0.45 0.35;
#X obj 417 418 singleLight 0 0.5 0.45 0.35;
#X obj 58 513 singleLight -4 -0.5 0.45 0.35;
#X obj 422 506 singleLight 0 -0.5 0.45 0.35;
#X obj 55 598 singleLight -4 -1.5 0.45 0.35;
#X obj 426 580 singleLight 0 -1.5 0.45 0.35;
#X obj 229 693 singleLight -2 -2.5 0.45 0.35;
#X obj 420 140 r r1;
#X obj 558 143 r g1;
#X obj 696 144 r b1;
#X obj 407 217 r r2;
#X obj 545 220 r g2;
#X obj 683 221 r b2;
#X obj 415 291 r r3;
#X obj 553 294 r g3;
#X obj 691 295 r b3;
#X obj 419 384 r r4;
#X obj 557 387 r g4;
#X obj 695 388 r b4;
#X obj 422 470 r r5;
#X obj 560 473 r g5;
#X obj 698 474 r b5;
#X obj 428 543 r r6;
#X obj 566 546 r g6;
#X obj 704 547 r 6;
#X obj 516 655 r b7;
#X obj 378 654 r g7;
#X obj 240 651 r r7;
#X obj 335 565 r b8;
#X obj 197 564 r g8;
#X obj 59 561 r r8;
#X obj 63 392 r r10;
#X obj 201 395 r g10;
#X obj 339 396 r b10;
#X obj 340 305 r b11;
#X obj 202 304 r g11;
#X obj 64 301 r r11;
#X obj 61 227 r r12;
#X obj 199 230 r g12;
#X obj 337 231 r b12;
#X obj 102 158 r r13;
#X obj 228 158 r g13;
#X obj 344 147 r b13;
#X connect 0 0 11 2;
#X connect 1 0 11 1;
#X connect 2 0 11 0;
#X connect 16 0 4 0;
#X connect 17 0 4 1;
#X connect 18 0 4 2;
#X connect 19 0 5 0;
#X connect 20 0 5 1;
#X connect 21 0 5 2;
#X connect 22 0 8 0;
#X connect 23 0 8 1;
#X connect 24 0 8 2;
#X connect 25 0 10 0;
#X connect 26 0 10 1;
#X connect 27 0 10 2;
#X connect 28 0 12 0;
#X connect 29 0 12 1;
#X connect 30 0 12 2;
#X connect 31 0 14 0;
#X connect 32 0 14 1;
#X connect 33 0 14 2;
#X connect 34 0 15 2;
#X connect 35 0 15 1;
#X connect 36 0 15 0;
#X connect 37 0 13 2;
#X connect 38 0 13 1;
#X connect 39 0 13 0;
#X connect 40 0 9 0;
#X connect 41 0 9 1;
#X connect 42 0 9 2;
#X connect 43 0 7 2;
#X connect 44 0 7 1;
#X connect 45 0 7 0;
#X connect 46 0 6 0;
#X connect 47 0 6 1;
#X connect 48 0 6 2;
#X connect 49 0 3 0;
#X connect 50 0 3 1;
#X connect 51 0 3 2;
#X restore 1188 279 pd GemWindow;
#X connect 1 0 2 0;
#X connect 2 0 1 0;
#X connect 3 0 9 0;
#X connect 4 0 8 0;
#X connect 5 0 6 0;
#X connect 5 0 14 0;
#X connect 6 0 11 0;
#X connect 8 0 5 0;
#X connect 9 0 10 0;
#X connect 9 1 5 0;
#X connect 10 0 7 0;
#X connect 11 0 7 1;
#X connect 13 0 35 0;
#X connect 13 1 35 1;
#X connect 14 0 37 0;
#X connect 15 0 38 0;
#X connect 19 0 4 0;
#X connect 19 0 3 0;
#X connect 20 0 19 0;
#X connect 20 1 4 0;
#X connect 20 1 3 0;
#X connect 21 0 20 0;
#X connect 24 0 19 1;
#X connect 25 0 19 1;
#X connect 26 0 19 1;
#X connect 27 0 19 1;
#X connect 28 0 19 1;
#X connect 29 0 24 0;
#X connect 29 0 34 0;
#X connect 29 0 25 0;
#X connect 29 0 26 0;
#X connect 29 0 27 0;
#X connect 29 0 28 0;
#X connect 32 0 31 0;
#X connect 33 0 36 0;
#X connect 33 0 37 1;
#X connect 34 0 19 1;
#X connect 35 0 20 0;
#X connect 37 0 16 0;
#X connect 38 0 8 3;
