#N canvas 201 22 1920 989 16;
#X obj 515 -13 cnv 15 100 60 empty empty empty 20 12 0 14 #bcbcbc #404040 0;
#N canvas 0 22 450 300 gemwin 0;
#X obj 132 136 gemwin;
#X obj 67 89 outlet;
#X obj 67 10 inlet;
#X obj 67 41 route create;
#X msg 67 70 set destroy;
#X msg 142 68 set create;
#X msg 198 112 destroy;
#X msg 132 112 create \, 1;
#X connect 2 0 3 0;
#X connect 3 0 4 0;
#X connect 3 0 7 0;
#X connect 3 1 5 0;
#X connect 3 1 6 0;
#X connect 4 0 1 0;
#X connect 5 0 1 0;
#X connect 6 0 0 0;
#X connect 7 0 0 0;
#X restore 507 30 pd gemwin;
#X msg 520 7 destroy;
#X text 516 -14 Create window:;
#X obj 1402 125 vsl 15 128 0 1 0 0 empty r13 empty 0 -9 0 10 #fcfcfc #000000 #000000 0 1;
#X obj 1542 132 vsl 15 128 0 1 0 0 empty g13 empty 0 -9 0 10 #fcfcfc #000000 #000000 0 1;
#X obj 1674 111 vsl 15 128 0 1 0 0 empty b13 empty 0 -9 0 10 #fcfcfc #000000 #000000 0 1;
#X floatatom 934 68 5 0 2000 0 - - - 0;
#X obj 764 150 env~ 1024;
#X obj 856 119 abs~;
#X obj 856 184 snapshot~;
#X obj 856 217 rmstodb;
#X obj 844 283 vu 18 160 empty VU -20 20 0 12 #404040 #000000 1 0;
#X obj 856 149 slop~ 0 0 0 0 1e+09;
#X obj 764 184 t f b;
#X obj 764 225 - 100;
#X obj 856 242 - 100;
#X obj 934 92 expr 1000 / $f1;
#X text 914 68 ms;
#X text 932 45 decay speed;
#X floatatom 934 118 5 0 0 0 - - - 0;
#X text 914 119 hz;
#X text 752 357 see also =>;
#X obj 768 85 adc~;
#X floatatom 728 250 5 0 0 0 - - - 0;
#X floatatom 959 204 5 0 0 0 - - - 0;
#X obj 956 234 * 1000;
#X floatatom 957 268 5 0 0 0 - - - 0;
#X obj 978 381 peak;
#X floatatom 979 428 5 0 0 0 - - - 0;
#X obj 905 472 / 1000;
#X obj 102 158 r r1;
#X obj 228 158 r g1;
#X obj 344 147 r b1;
#X obj 240 651 r r13;
#X obj 378 654 r g13;
#X obj 516 655 r b13;
#X obj 335 565 r b11;
#X obj 197 564 r g11;
#X obj 59 561 r r11;
#X obj 428 543 r r12;
#X obj 566 546 r g12;
#X obj 704 547 r b12;
#X obj 698 474 r b10;
#X obj 560 473 r g10;
#X obj 422 470 r r10;
#X obj 339 475 r b9;
#X obj 201 474 r g9;
#X obj 63 471 r r9;
#X obj 695 388 r b8;
#X obj 557 387 r g8;
#X obj 419 384 r r8;
#X obj 339 396 r b7;
#X obj 201 395 r g7;
#X obj 63 392 r r7;
#X obj 64 301 r r5;
#X obj 202 304 r g5;
#X obj 340 305 r b5;
#X obj 415 291 r r6;
#X obj 553 294 r g6;
#X obj 691 295 r b6;
#X obj 683 221 r b4;
#X obj 545 220 r g4;
#X obj 407 217 r r4;
#X obj 337 231 r b3;
#X obj 199 230 r g3;
#X obj 61 227 r r3;
#X obj 420 140 r r2;
#X obj 558 143 r g2;
#X obj 696 144 r b2;
#X obj 1151 48 loadbang;
#X msg 1148 78 500;
#X obj 804 531 s audio;
#N canvas 15 77 1920 989 colourToEachLight 0;
#X obj 189 0 s r1;
#X obj 237 1 s g1;
#X obj 289 0 s b1;
#X obj 46 -4 unpack f f f;
#X obj 59 31 unpack f f f;
#X obj 48 65 unpack f f f;
#X obj 50 100 unpack f f f;
#X obj 47 132 unpack f f f;
#X obj 49 167 unpack f f f;
#X obj 49 201 unpack f f f;
#X obj 51 236 unpack f f f;
#X obj 55 267 unpack f f f;
#X obj 52 299 unpack f f f;
#X obj 54 334 unpack f f f;
#X obj 54 368 unpack f f f;
#X obj 56 403 unpack f f f;
#X obj 191 35 s r2;
#X obj 239 36 s g2;
#X obj 291 35 s b2;
#X obj 191 69 s r3;
#X obj 239 70 s g3;
#X obj 291 69 s b3;
#X obj 193 104 s r4;
#X obj 241 105 s g4;
#X obj 293 104 s b4;
#X obj 190 136 s r5;
#X obj 238 137 s g5;
#X obj 290 136 s b5;
#X obj 192 171 s r6;
#X obj 240 172 s g6;
#X obj 292 171 s b6;
#X obj 192 205 s r7;
#X obj 240 206 s g7;
#X obj 292 205 s b7;
#X obj 194 240 s r8;
#X obj 242 241 s g8;
#X obj 294 236 s b8;
#X obj 198 271 s r9;
#X obj 246 272 s g9;
#X obj 298 271 s b9;
#X obj 195 303 s r10;
#X obj 243 304 s g10;
#X obj 295 303 s b10;
#X obj 197 338 s r11;
#X obj 245 339 s g11;
#X obj 297 338 s b11;
#X obj 197 372 s r12;
#X obj 245 373 s g12;
#X obj 297 372 s b12;
#X obj 199 407 s r13;
#X obj 247 408 s g13;
#X obj 299 407 s b13;
#X obj 1 -6 r l1;
#X obj 6 31 r l2;
#X obj 1 64 r l3;
#X obj 6 105 r l4;
#X obj 4 129 r l5;
#X obj 4 165 r l6;
#X obj 5 197 r l7;
#X obj 7 237 r l8;
#X obj 5 268 r l9;
#X obj 1 297 r l10;
#X obj 3 333 r l11;
#X obj 4 370 r l12;
#X obj 2 403 r l13;
#X obj 734 886 sel 0 1 2 3 4 5 6 7 8 9 10 11 12;
#X msg 637 936 1;
#X msg 687 938 3;
#X msg 737 937 5;
#X msg 787 939 7;
#X msg 835 939 9;
#X msg 889 942 11;
#X msg 937 943 13;
#X msg 985 945 12;
#X msg 1035 944 10;
#X msg 1085 946 8;
#X msg 1133 946 6;
#X msg 1187 949 4;
#X msg 1235 950 2;
#X obj 1458 28 s l1;
#X obj 1460 61 s l2;
#X obj 1476 82 s l3;
#X obj 1478 115 s l4;
#X obj 1479 146 s l5;
#X obj 1481 179 s l6;
#X obj 1497 200 s l7;
#X obj 1499 233 s l8;
#X obj 1504 263 s l9;
#X obj 1505 294 s l10;
#X obj 1507 327 s l11;
#X obj 1523 348 s l12;
#X obj 1525 381 s l13;
#X msg 1372 74 0 0 0;
#X obj 880 261 sel 0 1 2 3 4 5 6 7 8 9 10 11 12;
#X obj 1079 235 t f b;
#X obj 1034 18 r audio;
#X floatatom 1033 51 5 0 0 0 - - - 0;
#X floatatom 978 179 5 0 0 0 - - - 0;
#X floatatom 1117 177 5 0 0 0 - - - 0;
#X obj 978 217 int;
#X obj 48 551 s l1;
#X obj 1044 186 * 12;
#X obj 1041 147 mavg 1;
#X obj 248 549 s l2;
#X obj 416 576 s l3;
#X obj 638 571 s l4;
#X obj 798 566 s l5;
#X obj 1048 551 s l6;
#X obj 1237 548 s l7;
#X obj 1440 552 s l8;
#X obj 1717 564 s l9;
#X obj 995 729 s l10;
#X obj 1242 728 s l11;
#X obj 1445 741 s l12;
#X obj 1712 748 s l13;
#X obj 73 603 bng 24 250 50 0 empty empty empty 0 -12 0 16 #fcfcfc #000000 #000000;
#X obj 77 652 print;
#X obj 27 508 RandomColour;
#X obj 234 508 RandomColour;
#X obj 398 508 RandomColour;
#X obj 611 505 RandomColour;
#X obj 781 508 RandomColour;
#X obj 986 506 RandomColour;
#X obj 1178 502 RandomColour;
#X obj 1389 503 RandomColour;
#X obj 1663 513 RandomColour;
#X obj 1695 691 RandomColour;
#X obj 1387 687 RandomColour;
#X obj 1188 683 RandomColour;
#X obj 988 684 RandomColour;
#X obj 1035 80 * 1;
#X obj 1040 115 + 0;
#X connect 3 0 0 0;
#X connect 3 1 1 0;
#X connect 3 2 2 0;
#X connect 4 0 16 0;
#X connect 4 1 17 0;
#X connect 4 2 18 0;
#X connect 5 0 19 0;
#X connect 5 1 20 0;
#X connect 5 2 21 0;
#X connect 6 0 22 0;
#X connect 6 1 23 0;
#X connect 6 2 24 0;
#X connect 7 0 25 0;
#X connect 7 1 26 0;
#X connect 7 2 27 0;
#X connect 8 0 28 0;
#X connect 8 1 29 0;
#X connect 8 2 30 0;
#X connect 9 0 31 0;
#X connect 9 1 32 0;
#X connect 9 2 33 0;
#X connect 10 0 34 0;
#X connect 10 1 35 0;
#X connect 10 2 36 0;
#X connect 11 0 37 0;
#X connect 11 1 38 0;
#X connect 11 2 39 0;
#X connect 12 0 40 0;
#X connect 12 1 41 0;
#X connect 12 2 42 0;
#X connect 13 0 43 0;
#X connect 13 1 44 0;
#X connect 13 2 45 0;
#X connect 14 0 46 0;
#X connect 14 1 47 0;
#X connect 14 2 48 0;
#X connect 15 0 49 0;
#X connect 15 1 50 0;
#X connect 15 2 51 0;
#X connect 52 0 3 0;
#X connect 53 0 4 0;
#X connect 54 0 5 0;
#X connect 55 0 6 0;
#X connect 56 0 7 0;
#X connect 57 0 8 0;
#X connect 58 0 9 0;
#X connect 59 0 10 0;
#X connect 60 0 11 0;
#X connect 61 0 12 0;
#X connect 62 0 13 0;
#X connect 63 0 14 0;
#X connect 64 0 15 0;
#X connect 65 0 66 0;
#X connect 65 1 67 0;
#X connect 65 2 68 0;
#X connect 65 3 69 0;
#X connect 65 4 70 0;
#X connect 65 5 71 0;
#X connect 65 6 72 0;
#X connect 65 7 73 0;
#X connect 65 8 74 0;
#X connect 65 9 75 0;
#X connect 65 10 76 0;
#X connect 65 11 77 0;
#X connect 65 12 78 0;
#X connect 92 0 79 0;
#X connect 92 0 91 0;
#X connect 92 0 90 0;
#X connect 92 0 89 0;
#X connect 92 0 88 0;
#X connect 92 0 87 0;
#X connect 92 0 86 0;
#X connect 92 0 85 0;
#X connect 92 0 84 0;
#X connect 92 0 83 0;
#X connect 92 0 82 0;
#X connect 92 0 81 0;
#X connect 92 0 80 0;
#X connect 93 0 117 0;
#X connect 93 1 118 0;
#X connect 93 2 119 0;
#X connect 93 3 120 0;
#X connect 93 4 121 0;
#X connect 93 5 122 0;
#X connect 93 6 123 0;
#X connect 93 7 124 0;
#X connect 93 8 125 0;
#X connect 93 9 129 0;
#X connect 93 10 128 0;
#X connect 93 11 127 0;
#X connect 93 12 126 0;
#X connect 94 0 99 0;
#X connect 94 1 92 0;
#X connect 95 0 96 0;
#X connect 96 0 130 0;
#X connect 97 0 94 0;
#X connect 99 0 93 0;
#X connect 101 0 97 0;
#X connect 102 0 98 0;
#X connect 102 0 101 0;
#X connect 117 0 100 0;
#X connect 117 0 116 0;
#X connect 118 0 103 0;
#X connect 119 0 104 0;
#X connect 120 0 105 0;
#X connect 121 0 106 0;
#X connect 122 0 107 0;
#X connect 123 0 108 0;
#X connect 124 0 109 0;
#X connect 125 0 110 0;
#X connect 126 0 114 0;
#X connect 127 0 113 0;
#X connect 128 0 112 0;
#X connect 129 0 111 0;
#X connect 130 0 131 0;
#X connect 131 0 102 0;
#X restore 1495 736 pd colourToEachLight;
#X floatatom 1519 420 5 0 0 0 - - - 0;
#X floatatom 1523 498 5 0 0 0 - - - 0;
#X obj 1521 453 rescale 0 0.4 1 0 1;
#X obj 71 199 singleLight -4 3.5 0.45 0.35;
#X obj 416 184 singleLight 0 3.5 0.45 0.35;
#X obj 408 259 singleLight 0 2.5 0.45 0.35;
#X obj 70 271 singleLight -4 2.5 0.45 0.35;
#X obj 72 342 singleLight -4 1.5 0.45 0.35;
#X obj 415 325 singleLight 0 1.5 0.45 0.35;
#X obj 61 432 singleLight -4 0.5 0.45 0.35;
#X obj 417 418 singleLight 0 0.5 0.45 0.35;
#X obj 58 513 singleLight -4 -0.5 0.45 0.35;
#X obj 422 506 singleLight 0 -0.5 0.45 0.35;
#X obj 55 598 singleLight -4 -1.5 0.45 0.35;
#X obj 426 580 singleLight 0 -1.5 0.45 0.35;
#X obj 229 693 singleLight -2 -2.5 0.45 0.35;
#X text 174 68 This has the position of the light dependant on the volume.;
#X obj 1509 787 sendToDMX;
#X obj 922 542 hsl 204 24 0 1 0 0 empty empty empty -2 -12 0 16 #fcfcfc #000000 #000000 0 1;
#X obj 1105 434 pp.dynamics~;
#A saved empty_slot \; empty_slot \; empty_slot \; empty_slot \; empty_slot \; empty_slot \; empty_slot \; empty_slot \; empty_slot \; empty_slot \; empty_slot \; empty_slot \; empty_slot \; empty_slot \; empty_slot \; empty_slot \; empty_slot \; empty_slot \; empty_slot \; empty_slot \; empty_slot \;;
#X obj 1085 317 demux~;
#X obj 1093 270 tgl 24 0 empty empty empty 0 -12 0 16 #fcfcfc #000000 #000000 0 1;
#X text 1376 449 %;
#X text 1376 366 %;
#X msg 1325 305 release 90;
#X msg 1322 337 threshold-compress -8;
#X msg 1324 371 compression 100;
#X msg 1324 410 threshold-expand -100;
#X msg 1328 445 expansion 17.1;
#X msg 1330 479 gain 9;
#X obj 1329 260 loadbang;
#X obj 1496 699 WinterfestDMX;
#X msg 1349 56 \; pd dsp 1 \;;
#X obj 1351 18 loadbang;
#X connect 1 0 2 0;
#X connect 2 0 1 0;
#X connect 7 0 17 0;
#X connect 8 0 14 0;
#X connect 9 0 13 0;
#X connect 10 0 11 0;
#X connect 10 0 25 0;
#X connect 11 0 16 0;
#X connect 13 0 10 0;
#X connect 14 0 15 0;
#X connect 14 0 24 0;
#X connect 14 1 10 0;
#X connect 15 0 12 0;
#X connect 16 0 12 1;
#X connect 17 0 20 0;
#X connect 20 0 13 3;
#X connect 23 0 94 0;
#X connect 25 0 26 0;
#X connect 26 0 27 0;
#X connect 27 0 28 0;
#X connect 27 0 30 0;
#X connect 28 0 29 0;
#X connect 30 0 72 0;
#X connect 31 0 77 0;
#X connect 32 0 77 1;
#X connect 33 0 77 2;
#X connect 34 0 89 0;
#X connect 35 0 89 1;
#X connect 36 0 89 2;
#X connect 37 0 87 2;
#X connect 38 0 87 1;
#X connect 39 0 87 0;
#X connect 40 0 88 0;
#X connect 41 0 88 1;
#X connect 42 0 88 2;
#X connect 43 0 86 2;
#X connect 44 0 86 1;
#X connect 45 0 86 0;
#X connect 46 0 85 2;
#X connect 47 0 85 1;
#X connect 48 0 85 0;
#X connect 49 0 84 2;
#X connect 50 0 84 1;
#X connect 51 0 84 0;
#X connect 52 0 83 2;
#X connect 53 0 83 1;
#X connect 54 0 83 0;
#X connect 55 0 81 0;
#X connect 56 0 81 1;
#X connect 57 0 81 2;
#X connect 58 0 82 0;
#X connect 59 0 82 1;
#X connect 60 0 82 2;
#X connect 61 0 79 2;
#X connect 62 0 79 1;
#X connect 63 0 79 0;
#X connect 64 0 80 2;
#X connect 65 0 80 1;
#X connect 66 0 80 0;
#X connect 67 0 78 0;
#X connect 68 0 78 1;
#X connect 69 0 78 2;
#X connect 70 0 71 0;
#X connect 71 0 7 0;
#X connect 74 0 76 0;
#X connect 76 0 75 0;
#X connect 92 0 72 0;
#X connect 93 0 9 0;
#X connect 93 0 8 0;
#X connect 94 0 93 0;
#X connect 94 0 8 0;
#X connect 94 1 9 0;
#X connect 95 0 94 0;
#X connect 98 0 93 1;
#X connect 99 0 93 1;
#X connect 100 0 93 1;
#X connect 101 0 93 1;
#X connect 102 0 93 1;
#X connect 103 0 93 1;
#X connect 104 0 98 0;
#X connect 104 0 99 0;
#X connect 104 0 100 0;
#X connect 104 0 101 0;
#X connect 104 0 102 0;
#X connect 104 0 103 0;
#X connect 107 0 106 0;
