#N canvas 578 19 1669 739 10;
#X msg 75 168 ports;
#X msg 56 137 open \$1;
#X obj 56 105 hradio 15 1 0 8 empty empty empty 0 -8 0 10 #fcfcfc #000000 #000000 0;
#N canvas 409 67 854 653 Construction 0;
#X obj 235 279 until;
#X obj 235 316 counter;
#X msg 471 466 clear;
#X obj 235 381 * 80;
#X obj 235 483 s pd-Console;
#X floatatom 250 114 5 0 0 0 - - - 0;
#X obj 235 205 f;
#X obj 250 140 bng 10 250 50 0 empty empty empty 17 7 0 10 #fcfcfc #000000 #000000;
#X obj 235 252 t f b b;
#X obj 235 353 t f f;
#X obj 235 412 pack f f;
#X msg 235 444 obj \$1 0 DMXlider \$2;
#X obj 280 370 + 1;
#X obj -103 74 list-replace;
#N canvas 104 104 341 328 list-creation 0;
#X obj 118 -15 t b b b;
#X obj 137 198 list append;
#X msg 236 81 231;
#X obj 137 85 until;
#X msg 137 119 0;
#X msg 38 82 126 6 1 2;
#X obj 137 235 outlet;
#X obj 118 -42 loadbang;
#X msg 137 53 513;
#X obj 234 215 list;
#X connect 0 0 5 0;
#X connect 0 1 8 0;
#X connect 0 2 2 0;
#X connect 1 0 6 0;
#X connect 1 0 9 0;
#X connect 2 0 1 0;
#X connect 3 0 4 0;
#X connect 4 0 1 0;
#X connect 5 0 1 0;
#X connect 7 0 0 0;
#X connect 8 0 3 0;
#X connect 9 0 1 1;
#X restore 44 57 pd list-creation;
#X obj -103 10 r value;
#X obj -69 37 r index;
#X text -92 130 DMX steam is at 40 Hz;
#X obj -103 174 spigot;
#X obj 250 164 tgl 10 0 empty empty empty 17 7 0 10 #fcfcfc #000000 #000000 0 1;
#X text 126 112 Nombre de tranche :;
#X text 120 136 Créer les tranches :;
#X text 108 160 Activer les tranches :;
#X obj 39 333 outlet;
#N canvas 222 810 1666 385 Console 0;
#X obj 0 0 DMXlider 1;
#X obj 80 0 DMXlider 2;
#X obj 160 0 DMXlider 3;
#X obj 240 0 DMXlider 4;
#X obj 320 0 DMXlider 5;
#X obj 400 0 DMXlider 6;
#X obj 480 0 DMXlider 7;
#X obj 560 0 DMXlider 8;
#X obj 640 0 DMXlider 9;
#X obj 720 0 DMXlider 10;
#X obj 800 0 DMXlider 11;
#X obj 880 0 DMXlider 12;
#X obj 960 0 DMXlider 13;
#X obj 1040 0 DMXlider 14;
#X obj 1120 0 DMXlider 15;
#X obj 1200 0 DMXlider 16;
#X obj 1280 0 DMXlider 17;
#X obj 1360 0 DMXlider 18;
#X obj 1440 0 DMXlider 19;
#X obj 1520 0 DMXlider 20;
#X obj 1600 0 DMXlider 21;
#X obj 1680 0 DMXlider 22;
#X obj 1760 0 DMXlider 23;
#X obj 1840 0 DMXlider 24;
#X restore 383 128 pd Console;
#X obj 250 185 bng 10 250 50 0 empty empty empty 17 7 0 10 #fcfcfc #000000 #000000;
#X text 138 182 Voir la console :;
#X msg 516 195 \; pd-Console vis 1;
#X obj 349 14 loadbang;
#X obj 350 45 delay 100;
#X obj 350 75 delay 100;
#X msg 387 233 24;
#X obj 0 91 list;
#X obj -103 110 resample 25;
#X connect 0 0 1 0;
#X connect 1 0 9 0;
#X connect 2 0 4 0;
#X connect 3 0 10 0;
#X connect 5 0 6 1;
#X connect 6 0 8 0;
#X connect 7 0 6 0;
#X connect 8 0 0 0;
#X connect 8 1 1 2;
#X connect 8 2 2 0;
#X connect 9 0 3 0;
#X connect 9 1 12 0;
#X connect 10 0 11 0;
#X connect 11 0 4 0;
#X connect 12 0 10 1;
#X connect 13 0 32 0;
#X connect 13 0 33 0;
#X connect 14 0 13 2;
#X connect 15 0 13 0;
#X connect 16 0 13 1;
#X connect 18 0 23 0;
#X connect 19 0 18 1;
#X connect 25 0 27 0;
#X connect 28 0 29 0;
#X connect 29 0 30 0;
#X connect 29 0 19 0;
#X connect 30 0 31 0;
#X connect 31 0 8 0;
#X connect 31 0 5 0;
#X connect 32 0 13 2;
#X connect 33 0 18 0;
#X coords 0 -1 1 1 200 105 2 100 100;
#X restore 263 99 pd Construction;
#X obj 95 239 route ports;
#X obj 95 268 print Ports;
#X text 59 89 0;
#X text 90 89 2;
#X text 119 89 4;
#X text 74 89 1;
#X text 105 89 3;
#X text 134 89 5;
#X text 149 89 6;
#X text 165 89 7;
#X text 188 104 << COM Port;
#X obj 56 36 loadbang;
#X obj 56 204 comport;
#X msg 181 222 devices;
#X obj 672 135 r soundLightvalues;
#X obj 278 266 print;
#X obj 272 227 spigot;
#X obj 337 221 tgl 18 0 empty empty empty 0 -9 0 10 #fcfcfc #000000 #000000 0 1;
#X obj 690 180 unpack f f;
#X obj 669 156 t b b l;
#X obj 649 207 f;
#X obj 690 207 f;
#X obj 673 238 s value;
#X obj 608 243 s index;
#X msg 133 170 close;
#X obj 614 220 + 4;
#X msg 56 64 4;
#X connect 0 0 16 0;
#X connect 1 0 16 0;
#X connect 2 0 1 0;
#X connect 3 0 20 0;
#X connect 3 0 16 0;
#X connect 4 0 5 0;
#X connect 15 0 30 0;
#X connect 16 1 4 0;
#X connect 17 0 16 0;
#X connect 18 0 23 0;
#X connect 20 0 19 0;
#X connect 21 0 20 1;
#X connect 22 0 24 1;
#X connect 22 1 25 1;
#X connect 23 0 25 0;
#X connect 23 1 24 0;
#X connect 23 2 22 0;
#X connect 24 0 29 0;
#X connect 25 0 26 0;
#X connect 28 0 16 0;
#X connect 29 0 27 0;
#X connect 30 0 2 0;
