#N canvas 578 19 1669 739 10;
#X msg 75 168 ports;
#X msg 56 137 open \$1;
#X obj 56 105 hradio 15 1 0 8 empty empty empty 0 -8 0 10 #fcfcfc #000000 #000000 0;
#N canvas 409 67 854 653 Construction 0;
#X obj 235 279 until;
#X obj 235 316 counter;
#X msg 471 466 clear;
#X obj 235 381 * 80;
#X obj 235 483 s pd-Console;
#X floatatom 250 114 5 0 0 0 - - - 0;
#X obj 235 205 f;
#X obj 250 140 bng 10 250 50 0 empty empty empty 17 7 0 10 #fcfcfc #000000 #000000;
#X obj 235 252 t f b b;
#X obj 235 353 t f f;
#X obj 235 412 pack f f;
#X msg 235 444 obj \$1 0 DMXlider \$2;
#X obj 280 370 + 1;
#X obj -103 74 list-replace;
#N canvas 104 104 341 328 list-creation 0;
#X obj 118 -15 t b b b;
#X obj 137 198 list append;
#X msg 236 81 231;
#X obj 137 85 until;
#X msg 137 119 0;
#X msg 38 82 126 6 1 2;
#X obj 137 235 outlet;
#X obj 118 -42 loadbang;
#X msg 137 53 513;
#X obj 234 215 list;
#X connect 0 0 5 0;
#X connect 0 1 8 0;
#X connect 0 2 2 0;
#X connect 1 0 6 0;
#X connect 1 0 9 0;
#X connect 2 0 1 0;
#X connect 3 0 4 0;
#X connect 4 0 1 0;
#X connect 5 0 1 0;
#X connect 7 0 0 0;
#X connect 8 0 3 0;
#X connect 9 0 1 1;
#X restore 44 57 pd list-creation;
#X obj -103 10 r value;
#X obj -69 37 r index;
#X text -92 130 DMX steam is at 40 Hz;
#X obj -103 174 spigot;
#X obj 250 164 tgl 10 0 empty empty empty 17 7 0 10 #fcfcfc #000000 #000000 0 1;
#X text 126 112 Nombre de tranche :;
#X text 120 136 Créer les tranches :;
#X text 108 160 Activer les tranches :;
#X obj 39 333 outlet;
#N canvas 222 810 1666 385 Console 1;
#X obj 0 0 DMXlider 1;
#X obj 80 0 DMXlider 2;
#X obj 160 0 DMXlider 3;
#X obj 240 0 DMXlider 4;
#X obj 320 0 DMXlider 5;
#X obj 400 0 DMXlider 6;
#X obj 480 0 DMXlider 7;
#X obj 560 0 DMXlider 8;
#X obj 640 0 DMXlider 9;
#X obj 720 0 DMXlider 10;
#X obj 800 0 DMXlider 11;
#X obj 880 0 DMXlider 12;
#X obj 960 0 DMXlider 13;
#X obj 1040 0 DMXlider 14;
#X obj 1120 0 DMXlider 15;
#X obj 1200 0 DMXlider 16;
#X obj 1280 0 DMXlider 17;
#X obj 1360 0 DMXlider 18;
#X obj 1440 0 DMXlider 19;
#X obj 1520 0 DMXlider 20;
#X obj 1600 0 DMXlider 21;
#X obj 1680 0 DMXlider 22;
#X obj 1760 0 DMXlider 23;
#X obj 1840 0 DMXlider 24;
#X restore 383 128 pd Console;
#X obj 250 185 bng 10 250 50 0 empty empty empty 17 7 0 10 #fcfcfc #000000 #000000;
#X text 138 182 Voir la console :;
#X msg 516 195 \; pd-Console vis 1;
#X obj 349 14 loadbang;
#X obj 350 45 delay 100;
#X obj 350 75 delay 100;
#X msg 387 233 24;
#X obj 0 91 list;
#X obj -103 110 resample 25;
#X connect 0 0 1 0;
#X connect 1 0 9 0;
#X connect 2 0 4 0;
#X connect 3 0 10 0;
#X connect 5 0 6 1;
#X connect 6 0 8 0;
#X connect 7 0 6 0;
#X connect 8 0 0 0;
#X connect 8 1 1 2;
#X connect 8 2 2 0;
#X connect 9 0 3 0;
#X connect 9 1 12 0;
#X connect 10 0 11 0;
#X connect 11 0 4 0;
#X connect 12 0 10 1;
#X connect 13 0 32 0;
#X connect 13 0 33 0;
#X connect 14 0 13 2;
#X connect 15 0 13 0;
#X connect 16 0 13 1;
#X connect 18 0 23 0;
#X connect 19 0 18 1;
#X connect 25 0 27 0;
#X connect 28 0 29 0;
#X connect 29 0 30 0;
#X connect 29 0 19 0;
#X connect 30 0 31 0;
#X connect 31 0 8 0;
#X connect 31 0 5 0;
#X connect 32 0 13 2;
#X connect 33 0 18 0;
#X coords 0 -1 1 1 200 105 2 100 100;
#X restore 263 99 pd Construction;
#X obj 95 239 route ports;
#X obj 95 268 print Ports;
#X text 59 89 0;
#X text 90 89 2;
#X text 119 89 4;
#X text 74 89 1;
#X text 105 89 3;
#X text 134 89 5;
#X text 149 89 6;
#X text 165 89 7;
#X obj 369 414 vsl 15 128 0 255 0 0 empty empty empty 0 -9 0 10 #bbbbbb #000000 #000000 0 1;
#X obj 369 552 t f b;
#X obj 396 618 s index;
#X obj 369 661 s value;
#X obj 369 640 i;
#X obj 396 596 + 4;
#X obj 449 414 vsl 15 128 0 255 0 0 empty empty empty 0 -9 0 10 #bbbbbb #000000 #000000 0 1;
#X obj 449 552 t f b;
#X obj 476 618 s index;
#X obj 449 661 s value;
#X obj 449 640 i;
#X obj 476 596 + 4;
#X obj 529 414 vsl 15 128 0 255 0 0 empty empty empty 0 -9 0 10 #bbbbbb #000000 #000000 0 1;
#X obj 529 552 t f b;
#X obj 556 618 s index;
#X obj 529 661 s value;
#X obj 529 640 i;
#X obj 556 596 + 4;
#X obj 609 414 vsl 15 128 0 255 0 0 empty empty empty 0 -9 0 10 #bbbbbb #000000 #000000 0 1;
#X obj 609 552 t f b;
#X obj 636 618 s index;
#X obj 609 661 s value;
#X obj 609 640 i;
#X obj 636 596 + 4;
#X obj 396 574 1;
#X obj 476 574 2;
#X obj 556 574 3;
#X obj 636 574 4;
#X obj 553 51 dumpOSC 8006;
#X text 188 104 << COM Port;
#X obj 689 414 vsl 15 128 0 255 0 0 empty empty empty 0 -9 0 10 #bbbbbb #000000 #000000 0 1;
#X obj 689 552 t f b;
#X obj 716 618 s index;
#X obj 689 661 s value;
#X obj 689 640 i;
#X obj 716 596 + 4;
#X obj 716 574 5;
#X obj 784 415 vsl 15 128 0 255 0 0 empty empty empty 0 -9 0 10 #bbbbbb #000000 #000000 0 1;
#X obj 772 548 t f b;
#X obj 811 605 s index;
#X obj 783 674 s value;
#X obj 783 652 i;
#X obj 811 583 + 4;
#X obj 864 401 vsl 15 128 0 255 0 0 empty empty empty 0 -9 0 10 #fc0400 #000000 #000000 0 1;
#X obj 864 539 t f b;
#X obj 891 605 s index;
#X obj 863 674 s value;
#X obj 863 652 i;
#X obj 891 583 + 4;
#X obj 944 401 vsl 15 128 0 255 0 0 empty empty empty 0 -9 0 10 #00fc04 #000000 #000000 0 1;
#X obj 944 539 t f b;
#X obj 971 605 s index;
#X obj 943 674 s value;
#X obj 943 652 i;
#X obj 971 583 + 4;
#X obj 1024 401 vsl 15 128 0 255 0 0 empty empty empty 0 -9 0 10 #0400fc #000000 #000000 0 1;
#X obj 1024 539 t f b;
#X obj 1051 605 s index;
#X obj 1023 674 s value;
#X obj 1023 652 i;
#X obj 1051 583 + 4;
#X obj 1104 401 vsl 15 128 0 255 0 0 empty empty empty 0 -9 0 10 #ffffff #000000 #000000 0 1;
#X obj 1104 539 t f b;
#X obj 1131 605 s index;
#X obj 1103 674 s value;
#X obj 1103 652 i;
#X obj 1131 583 + 4;
#X obj 784 305 r osc_in;
#X obj 553 128 s osc_in;
#X obj 369 347 r osc_in;
#X obj 56 36 loadbang;
#X obj 553 93 routeOSC;
#X obj 369 378 route 1 2 3 4 5;
#X msg 156 150 devicename /dev/ttyUSB0;
#X obj 784 340 route 6 7 8 9 10 11;
#X obj 811 561 6;
#X obj 891 561 7;
#X obj 971 561 8;
#X obj 1051 561 9;
#X obj 1131 561 10;
#X msg 667 49 7 0 \, 8 0 \, 9 0;
#X msg 718 73 10 255;
#X msg 722 101 10 0;
#X floatatom 658 551 5 0 0 0 - - - 0;
#X obj 693 266 vsl 15 128 8 134 0 0 empty empty empty 0 -9 0 10 #fcfcfc #000000 #000000 0 1;
#X text 742 222 Master Dimmer;
#X obj 735 252 tgl 30 0 empty empty empty 17 7 0 10 #fcfcfc #000000 #000000 0 134;
#X text 776 263 ON/OFF;
#X obj 665 264 vsl 15 128 135 239 0 0 empty empty empty 0 -9 0 10 #fcfcfc #000000 #000000 0 1;
#X text 614 269 Strobe;
#X text 337 532 Pan;
#X text 392 533 Pan Fine;
#X text 495 531 Tilt;
#X text 549 532 Tilt Fine;
#X text 650 529 Speed;
#X floatatom 410 430 5 0 0 0 - - - 0;
#X floatatom 335 554 5 0 0 0 - - - 0;
#N canvas 73 26 1846 985 getOSCdata 0;
#X obj 75 43 r accel2X;
#X obj 309 94 r accel2Y;
#X floatatom 81 194 5 0 0 0 - - - 0;
#X floatatom 312 197 5 0 0 0 - - - 0;
#X obj 313 286 s osc_in;
#X obj 78 270 s osc_in;
#X msg 79 241 3 \$1;
#X msg 311 241 1 \$1;
#X obj 311 144 maxlib/scale -10 10 228 112;
#X obj 76 88 moses 0;
#X floatatom 36 64 5 0 0 0 - - - 0;
#X msg 176 127 255;
#X obj 125 176 maxlib/scale 0 -10 255 125;
#X text 124 242 send to tilt;
#X text 360 240 send to pan;
#X text 144 49 flat or down stay flat \, above flat only go to straight up;
#X text 107 18 Be sure to start receiveAllsensors;
#X connect 0 0 9 0;
#X connect 0 0 10 0;
#X connect 1 0 8 0;
#X connect 2 0 6 0;
#X connect 3 0 7 0;
#X connect 6 0 5 0;
#X connect 7 0 4 0;
#X connect 8 0 3 0;
#X connect 9 0 12 0;
#X connect 9 1 11 0;
#X connect 11 0 2 0;
#X connect 12 0 2 0;
#X restore 507 345 pd getOSCdata;
#X obj 56 204 comport;
#X msg 181 222 devices;
#X obj 831 60 hsl 136 16 0 127 0 0 empty empty empty -2 -8 0 10 #fcfcfc #000000 #000000 0 1;
#X msg 819 110 1 \$1 \, 2 0 \, 3 255;
#X obj 686 123 r soundLightvalues;
#X obj 488 192 print;
#X obj 278 266 print;
#X obj 272 227 spigot;
#X obj 337 221 tgl 18 0 empty empty empty 0 -9 0 10 #fcfcfc #000000 #000000 0 1;
#X obj 690 180 unpack f f;
#X obj 669 156 t b b l;
#X obj 649 207 f;
#X obj 690 207 f;
#X obj 690 230 s value;
#X obj 608 243 s index;
#X msg 124 146 close;
#X msg 664 27 1 255 \, 2 255 \, 3 255;
#X obj 779 145 s osc_in;
#X msg 942 113 4 0 \, 5 0 \, 6 255;
#X obj 614 220 + 4;
#X msg 56 64 4;
#X connect 0 0 112 0;
#X connect 1 0 112 0;
#X connect 2 0 1 0;
#X connect 3 0 119 0;
#X connect 3 0 112 0;
#X connect 4 0 5 0;
#X connect 14 0 15 0;
#X connect 14 0 110 0;
#X connect 15 0 18 0;
#X connect 15 1 38 0;
#X connect 18 0 17 0;
#X connect 19 0 16 0;
#X connect 20 0 21 0;
#X connect 21 0 24 0;
#X connect 21 1 39 0;
#X connect 24 0 23 0;
#X connect 25 0 22 0;
#X connect 26 0 27 0;
#X connect 27 0 30 0;
#X connect 27 1 40 0;
#X connect 30 0 29 0;
#X connect 31 0 28 0;
#X connect 32 0 33 0;
#X connect 33 0 36 0;
#X connect 33 1 41 0;
#X connect 36 0 35 0;
#X connect 37 0 34 0;
#X connect 38 0 19 0;
#X connect 39 0 25 0;
#X connect 40 0 31 0;
#X connect 41 0 37 0;
#X connect 42 0 85 0;
#X connect 44 0 45 0;
#X connect 44 0 97 0;
#X connect 45 0 48 0;
#X connect 45 1 50 0;
#X connect 48 0 47 0;
#X connect 49 0 46 0;
#X connect 50 0 49 0;
#X connect 51 0 52 0;
#X connect 52 0 55 0;
#X connect 52 1 89 0;
#X connect 55 0 54 0;
#X connect 56 0 53 0;
#X connect 57 0 58 0;
#X connect 58 0 61 0;
#X connect 58 1 90 0;
#X connect 61 0 60 0;
#X connect 62 0 59 0;
#X connect 63 0 64 0;
#X connect 64 0 67 0;
#X connect 64 1 91 0;
#X connect 67 0 66 0;
#X connect 68 0 65 0;
#X connect 69 0 70 0;
#X connect 70 0 73 0;
#X connect 70 1 92 0;
#X connect 73 0 72 0;
#X connect 74 0 71 0;
#X connect 75 0 76 0;
#X connect 76 0 79 0;
#X connect 76 1 93 0;
#X connect 79 0 78 0;
#X connect 80 0 77 0;
#X connect 81 0 88 0;
#X connect 83 0 86 0;
#X connect 84 0 132 0;
#X connect 85 0 82 0;
#X connect 86 0 14 0;
#X connect 86 1 20 0;
#X connect 86 2 26 0;
#X connect 86 2 109 0;
#X connect 86 3 32 0;
#X connect 86 4 44 0;
#X connect 87 0 112 0;
#X connect 88 0 51 0;
#X connect 88 1 57 0;
#X connect 88 2 63 0;
#X connect 88 3 69 0;
#X connect 88 4 75 0;
#X connect 89 0 56 0;
#X connect 90 0 62 0;
#X connect 91 0 68 0;
#X connect 92 0 74 0;
#X connect 93 0 80 0;
#X connect 94 0 82 0;
#X connect 95 0 82 0;
#X connect 96 0 82 0;
#X connect 98 0 52 0;
#X connect 100 0 52 0;
#X connect 102 0 52 0;
#X connect 112 1 4 0;
#X connect 113 0 112 0;
#X connect 114 0 115 0;
#X connect 114 0 130 0;
#X connect 115 0 82 0;
#X connect 116 0 122 0;
#X connect 119 0 118 0;
#X connect 120 0 119 1;
#X connect 121 0 123 1;
#X connect 121 1 124 1;
#X connect 122 0 124 0;
#X connect 122 1 123 0;
#X connect 122 2 121 0;
#X connect 123 0 131 0;
#X connect 124 0 125 0;
#X connect 127 0 112 0;
#X connect 128 0 82 0;
#X connect 130 0 82 0;
#X connect 131 0 126 0;
#X connect 132 0 2 0;
