#N canvas 308 80 707 700 10;
#X obj 30 63 inlet mode;
#X msg 21 -26 up;
#X msg 34 -6 down;
#X msg 55 13 updown;
#X text 17 -43 direction:;
#X text 8 -134 inc/decrement doesn't;
#X text 8 -123 care about direction;
#X floatatom 172 -120 5 0 0 0 - - -;
#X msg 191 -96 0;
#X msg 201 -77 1;
#X msg 210 -57 2;
#X text 235 -93 counter direction;
#X text 258 -81 0 = up;
#X text 258 -69 1 = down;
#X text 258 -57 2 = up and down;
#X floatatom 219 -17 5 0 0 0 - - -;
#X floatatom 227 0 5 0 0 0 - - -;
#X floatatom 234 18 5 0 0 0 - - -;
#X text 277 19 set max;
#X text 272 -2 set counter value;
#X msg 329 -121 next;
#X text 218 -120 number = bang =;
#X text 264 -19 set min **;
#X msg 523 -62 set \$1;
#X floatatom 523 -81 5 0 0 0 - - -;
#X msg 577 -61 jam \$1;
#X floatatom 577 -80 5 0 0 0 - - -;
#X text 468 -99 set counter to nr. and output;
#X text 617 -82 immediately;
#X text 433 -82 at next bang;
#X msg 438 -63 goto \$1;
#X text 499 -61 =;
#X msg 417 14 min \$1;
#X msg 465 13 max \$1;
#X floatatom 417 -7 5 0 0 0 - - -;
#X floatatom 465 -8 5 0 0 0 - - -;
#X text 414 -25 set min/max;
#X text 424 -125 additional ways to accomplish the same:;
#X obj 100 63 inlet dir;
#X obj 170 63 inlet min;
#X obj 240 63 inlet value;
#X obj 320 63 inlet max;
#X text 395 60 In Minx I use 1 (inc and dec message) \, 3 \, 5;
#X text 397 77 Bangs to 1 and 3 in [comms];
#X obj 171 500 outlet number;
#X obj 30 104 route inc dec bang;
#X obj 170 107 route bang;
#X obj 30 204 bng 15 250 50 0 empty empty empty 17 7 0 10 -262144 -1
-1;
#X obj 65 204 bng 15 250 50 0 empty empty empty 17 7 0 10 -262144 -1
-1;
#X obj 100 204 bng 15 250 50 0 empty empty empty 17 7 0 10 -262144
-1 -1;
#X floatatom 143 -8 5 0 0 0 - - -;
#X obj 187 19 bng 15 250 50 0 empty empty empty 17 7 0 10 -262144 -1
-1;
#X floatatom 123 27 5 0 0 0 - - -;
#X obj 320 92 route bang;
#X obj 100 233 + 1;
#X obj 65 232 - 1;
#X obj 30 232 + 1;
#X floatatom 65 326 5 0 0 0 - - -;
#X obj 65 292 +;
#X obj 103 293 f;
#X floatatom 239 434 5 0 0 0 - - -;
#X obj 239 465 bng 15 250 50 0 empty empty empty 17 7 0 10 -262144
-1 -1;
#X floatatom 405 202 5 0 0 0 - - -;
#X msg 197 160 0;
#X obj 171 398 min 1e+011;
#X obj 170 133 t b b;
#X obj 197 193 t f f f f;
#X obj 187 83 loadbang;
#X obj 344 379 ==;
#X obj 344 408 * -1;
#X obj 345 443 + 1;
#X msg 36 -85 inc;
#X msg 17 -105 dec;
#X obj 65 -62 bng 15 250 50 0 empty empty empty 17 7 0 10 -262144 -1
-1;
#X obj 30 167 spigot 1;
#X obj 100 167 spigot 1;
#X obj 170 342 max 0;
#X obj 74 379 ==;
#X obj 74 408 * -1;
#X obj 75 443 + 1;
#X obj 310 153 1e+013;
#X obj 314 259 delay 1;
#X msg 314 289 1;
#X obj 65 137 spigot;
#X connect 0 0 45 0;
#X connect 24 0 23 0;
#X connect 26 0 25 0;
#X connect 34 0 32 0;
#X connect 35 0 33 0;
#X connect 39 0 46 0;
#X connect 41 0 53 0;
#X connect 45 0 74 0;
#X connect 45 1 83 0;
#X connect 45 2 75 0;
#X connect 46 0 65 0;
#X connect 46 1 76 1;
#X connect 46 1 77 1;
#X connect 47 0 56 0;
#X connect 48 0 55 0;
#X connect 49 0 54 0;
#X connect 50 0 46 0;
#X connect 51 0 46 0;
#X connect 52 0 76 0;
#X connect 53 0 64 0;
#X connect 53 1 64 1;
#X connect 53 1 68 1;
#X connect 54 0 58 0;
#X connect 55 0 58 0;
#X connect 56 0 58 0;
#X connect 57 0 76 0;
#X connect 58 0 57 0;
#X connect 58 0 59 0;
#X connect 59 0 58 1;
#X connect 60 0 61 0;
#X connect 62 0 53 0;
#X connect 63 0 66 0;
#X connect 64 0 44 0;
#X connect 64 0 60 0;
#X connect 64 0 68 0;
#X connect 65 1 63 0;
#X connect 66 0 58 0;
#X connect 66 1 58 1;
#X connect 66 2 59 1;
#X connect 66 3 76 1;
#X connect 66 3 77 1;
#X connect 67 0 46 0;
#X connect 67 0 80 0;
#X connect 67 0 81 0;
#X connect 68 0 69 0;
#X connect 69 0 70 0;
#X connect 70 0 74 1;
#X connect 70 0 75 1;
#X connect 71 0 45 0;
#X connect 72 0 45 0;
#X connect 73 0 45 0;
#X connect 74 0 47 0;
#X connect 75 0 49 0;
#X connect 76 0 64 0;
#X connect 76 0 77 0;
#X connect 77 0 78 0;
#X connect 78 0 79 0;
#X connect 79 0 83 1;
#X connect 80 0 53 0;
#X connect 81 0 82 0;
#X connect 82 0 75 1;
#X connect 82 0 74 1;
#X connect 83 0 48 0;
