#N canvas 340 240 322 414 12;
#X obj 68 158 list tosymbol;
#X obj 111 72 oscparse;
#X obj 111 98 list-drip;
#X obj 48 352 outlet;
#X obj 48 312 list trim;
#X obj 48 17 netreceive -u -b \$1;
#X msg 172 158 add2 \$1;
#X obj 111 128 route symbol float;
#X obj 48 276 list prepend;
#X msg 48 199;
#X msg 208 63 set;
#X obj 48 44 t b a a b;
#X text 206 351 whale-av;
#X connect 0 0 8 1;
#X connect 1 0 2 0;
#X connect 2 0 7 0;
#X connect 4 0 3 0;
#X connect 5 0 11 0;
#X connect 6 0 9 0;
#X connect 7 1 6 0;
#X connect 8 0 4 0;
#X connect 9 0 8 0;
#X connect 10 0 9 0;
#X connect 11 0 9 0;
#X connect 11 1 0 0;
#X connect 11 2 1 0;
#X connect 11 3 10 0;
