#N canvas 144 111 1295 739 10;
#X msg 75 168 ports;
#X msg 56 137 open \$1;
#X obj 56 105 hradio 15 1 0 8 empty empty empty 0 -8 0 10 -262144 -1
-1 6;
#N canvas 345 87 749 653 Construction 0;
#X obj 235 279 until;
#X obj 235 316 counter;
#X msg 471 466 clear;
#X obj 235 381 * 80;
#X obj 235 483 s pd-Console;
#X floatatom 250 114 5 0 0 0 - - -;
#X obj 235 205 f;
#X obj 250 140 bng 10 250 50 0 empty empty empty 17 7 0 10 -262144
-1 -1;
#X obj 235 252 t f b b;
#X obj 235 353 t f f;
#X obj 235 412 pack f f;
#X msg 235 444 obj \$1 0 DMXlider \$2;
#X obj 280 370 + 1;
#X obj -103 74 list-replace;
#N canvas 0 50 341 328 list-creation 0;
#X obj 118 -15 t b b b;
#X obj 137 198 list append;
#X msg 236 81 231;
#X obj 137 85 until;
#X msg 137 119 0;
#X msg 38 82 126 6 1 2;
#X obj 137 235 outlet;
#X obj 118 -42 loadbang;
#X msg 137 53 513;
#X obj 234 215 list;
#X connect 0 0 5 0;
#X connect 0 1 8 0;
#X connect 0 2 2 0;
#X connect 1 0 6 0;
#X connect 1 0 9 0;
#X connect 2 0 1 0;
#X connect 3 0 4 0;
#X connect 4 0 1 0;
#X connect 5 0 1 0;
#X connect 7 0 0 0;
#X connect 8 0 3 0;
#X connect 9 0 1 1;
#X restore 44 57 pd list-creation;
#X obj -103 10 r value;
#X obj -69 37 r index;
#X obj -103 110 resample 25;
#X text -92 130 DMX steam is at 40 Hz;
#X obj -103 174 spigot;
#X obj 250 164 tgl 10 0 empty empty empty 17 7 0 10 -262144 -1 -1 0
1;
#X text 126 112 Nombre de tranche :;
#X text 120 136 Créer les tranches :;
#X text 108 160 Activer les tranches :;
#X obj 39 333 outlet;
#N canvas 242 419 921 169 Console 0;
#X obj 0 0 DMXlider 1;
#X obj 80 0 DMXlider 2;
#X obj 160 0 DMXlider 3;
#X obj 240 0 DMXlider 4;
#X obj 320 0 DMXlider 5;
#X obj 400 0 DMXlider 6;
#X obj 480 0 DMXlider 7;
#X obj 560 0 DMXlider 8;
#X obj 640 0 DMXlider 9;
#X obj 720 0 DMXlider 10;
#X obj 800 0 DMXlider 11;
#X obj 880 0 DMXlider 12;
#X obj 960 0 DMXlider 13;
#X obj 1040 0 DMXlider 14;
#X obj 1120 0 DMXlider 15;
#X obj 1200 0 DMXlider 16;
#X obj 1280 0 DMXlider 17;
#X obj 1360 0 DMXlider 18;
#X obj 1440 0 DMXlider 19;
#X obj 1520 0 DMXlider 20;
#X obj 1600 0 DMXlider 21;
#X obj 1680 0 DMXlider 22;
#X obj 1760 0 DMXlider 23;
#X obj 1840 0 DMXlider 24;
#X restore 383 128 pd Console;
#X obj 250 185 bng 10 250 50 0 empty empty empty 17 7 0 10 -262144
-1 -1;
#X text 138 182 Voir la console :;
#X msg 516 195 \; pd-Console vis 1;
#X obj 349 14 loadbang;
#X obj 350 45 delay 100;
#X obj 350 75 delay 100;
#X msg 387 233 24;
#X obj 0 91 list;
#X connect 0 0 1 0;
#X connect 1 0 9 0;
#X connect 2 0 4 0;
#X connect 3 0 10 0;
#X connect 5 0 6 1;
#X connect 6 0 8 0;
#X connect 7 0 6 0;
#X connect 8 0 0 0;
#X connect 8 1 1 2;
#X connect 8 2 2 0;
#X connect 9 0 3 0;
#X connect 9 1 12 0;
#X connect 10 0 11 0;
#X connect 11 0 4 0;
#X connect 12 0 10 1;
#X connect 13 0 17 0;
#X connect 13 0 33 0;
#X connect 14 0 13 2;
#X connect 15 0 13 0;
#X connect 16 0 13 1;
#X connect 17 0 19 0;
#X connect 19 0 24 0;
#X connect 20 0 19 1;
#X connect 26 0 28 0;
#X connect 29 0 30 0;
#X connect 30 0 31 0;
#X connect 30 0 20 0;
#X connect 31 0 32 0;
#X connect 32 0 8 0;
#X connect 32 0 5 0;
#X connect 33 0 13 2;
#X coords 0 -1 1 1 200 105 2 100 100;
#X restore 263 99 pd Construction;
#X obj 95 239 route ports;
#X obj 95 268 print Ports;
#X text 59 89 0;
#X text 90 89 2;
#X text 119 89 4;
#X text 74 89 1;
#X text 105 89 3;
#X text 134 89 5;
#X text 149 89 6;
#X text 165 89 7;
#X obj 828 62 vsl 15 128 0 255 0 0 empty empty empty 0 -9 0 10 -258113
-1 -1 0 1;
#X obj 828 200 t f b;
#X obj 855 266 s index;
#X obj 828 309 s value;
#X obj 828 288 i;
#X obj 855 244 + 4;
#X obj 908 62 vsl 15 128 0 255 0 0 empty empty empty 0 -9 0 10 -4034
-1 -1 0 1;
#X obj 908 200 t f b;
#X obj 935 266 s index;
#X obj 908 309 s value;
#X obj 908 288 i;
#X obj 935 244 + 4;
#X obj 988 62 vsl 15 128 0 255 0 0 empty empty empty 0 -9 0 10 -4160
-1 -1 0 1;
#X obj 988 200 t f b;
#X obj 1015 266 s index;
#X obj 988 309 s value;
#X obj 988 288 i;
#X obj 1015 244 + 4;
#X obj 1068 62 vsl 15 128 0 255 0 0 empty empty empty 0 -9 0 10 -228856
-1 -1 0 1;
#X obj 1068 200 t f b;
#X obj 1095 266 s index;
#X obj 1068 309 s value;
#X obj 1068 288 i;
#X obj 1095 244 + 4;
#X obj 855 222 1;
#X obj 935 222 2;
#X obj 1015 222 3;
#X obj 1095 222 4;
#X obj 553 51 dumpOSC 8006;
#X text 1085 582 << DMX channel;
#X text 188 104 << COM Port;
#X obj 1148 62 vsl 15 128 0 255 0 0 empty empty empty 0 -9 0 10 -159808
-1 -1 0 1;
#X obj 1148 200 t f b;
#X obj 1175 266 s index;
#X obj 1148 309 s value;
#X obj 1148 288 i;
#X obj 1175 244 + 4;
#X obj 1175 222 5;
#X obj 28 422 vsl 15 128 0 255 0 0 empty empty empty 0 -9 0 10 -159808
-1 -1 0 1;
#X obj 28 560 t f b;
#X obj 55 626 s index;
#X obj 28 669 s value;
#X obj 28 647 i;
#X obj 55 604 + 4;
#X obj 108 422 vsl 15 128 0 255 0 0 empty empty empty 0 -9 0 10 -258113
-1 -1 0 1;
#X obj 108 560 t f b;
#X obj 135 626 s index;
#X obj 108 669 s value;
#X obj 108 647 i;
#X obj 135 604 + 4;
#X obj 188 422 vsl 15 128 0 255 0 0 empty empty empty 0 -9 0 10 -4034
-1 -1 0 1;
#X obj 188 560 t f b;
#X obj 215 626 s index;
#X obj 188 669 s value;
#X obj 188 647 i;
#X obj 215 604 + 4;
#X obj 268 422 vsl 15 128 0 255 0 0 empty empty empty 0 -9 0 10 -4160
-1 -1 0 1;
#X obj 268 560 t f b;
#X obj 295 626 s index;
#X obj 268 669 s value;
#X obj 268 647 i;
#X obj 295 604 + 4;
#X obj 348 422 vsl 15 128 0 255 0 0 empty empty empty 0 -9 0 10 -228856
-1 -1 0 1;
#X obj 348 560 t f b;
#X obj 375 626 s index;
#X obj 348 669 s value;
#X obj 348 647 i;
#X obj 375 604 + 4;
#X obj 55 582 7;
#X obj 135 582 8;
#X obj 215 582 9;
#X obj 295 582 10;
#X obj 375 582 11;
#X obj 428 422 vsl 15 128 0 255 0 0 empty empty empty 0 -9 0 10 -260097
-1 -1 0 1;
#X obj 428 560 t f b;
#X obj 455 626 s index;
#X obj 428 669 s value;
#X obj 428 647 i;
#X obj 455 604 + 4;
#X obj 455 582 12;
#X obj 618 422 vsl 15 128 0 255 0 0 empty empty empty 0 -9 0 10 -159808
-1 -1 0 1;
#X obj 618 560 t f b;
#X obj 645 626 s index;
#X obj 618 669 s value;
#X obj 618 647 i;
#X obj 645 604 + 4;
#X obj 698 422 vsl 15 128 0 255 0 0 empty empty empty 0 -9 0 10 -258113
-1 -1 0 1;
#X obj 698 560 t f b;
#X obj 725 626 s index;
#X obj 698 669 s value;
#X obj 698 647 i;
#X obj 725 604 + 4;
#X obj 778 422 vsl 15 128 0 255 0 0 empty empty empty 0 -9 0 10 -4034
-1 -1 0 1;
#X obj 778 560 t f b;
#X obj 805 626 s index;
#X obj 778 669 s value;
#X obj 778 647 i;
#X obj 805 604 + 4;
#X obj 858 422 vsl 15 128 0 255 0 0 empty empty empty 0 -9 0 10 -4160
-1 -1 0 1;
#X obj 858 560 t f b;
#X obj 885 626 s index;
#X obj 858 669 s value;
#X obj 858 647 i;
#X obj 885 604 + 4;
#X obj 938 422 vsl 15 128 0 255 0 0 empty empty empty 0 -9 0 10 -228856
-1 -1 0 1;
#X obj 938 560 t f b;
#X obj 965 626 s index;
#X obj 938 669 s value;
#X obj 938 647 i;
#X obj 965 604 + 4;
#X obj 1018 422 vsl 15 128 0 255 0 0 empty empty empty 0 -9 0 10 -260097
-1 -1 0 1;
#X obj 1018 560 t f b;
#X obj 1045 626 s index;
#X obj 1018 669 s value;
#X obj 1018 647 i;
#X obj 1045 604 + 4;
#X obj 645 582 16;
#X obj 725 582 17;
#X obj 805 582 18;
#X obj 885 582 19;
#X obj 965 582 20;
#X obj 1045 582 21;
#X obj 28 326 r osc_in;
#X obj 553 128 s osc_in;
#X obj 618 324 r osc_in;
#X obj 828 -5 r osc_in;
#X obj 56 36 loadbang;
#X msg 56 64 6;
#X obj 56 204 comport;
#X obj 618 361 route 16 17 18 19 20 21;
#X obj 28 361 route 7 8 9 10 11 12;
#X obj 553 93 routeOSC;
#X obj 828 26 route 1 2 3 4 5;
#X connect 0 0 142 0;
#X connect 1 0 142 0;
#X connect 2 0 1 0;
#X connect 3 0 142 0;
#X connect 4 0 5 0;
#X connect 14 0 15 0;
#X connect 15 0 18 0;
#X connect 15 1 38 0;
#X connect 18 0 17 0;
#X connect 19 0 16 0;
#X connect 20 0 21 0;
#X connect 21 0 24 0;
#X connect 21 1 39 0;
#X connect 24 0 23 0;
#X connect 25 0 22 0;
#X connect 26 0 27 0;
#X connect 27 0 30 0;
#X connect 27 1 40 0;
#X connect 30 0 29 0;
#X connect 31 0 28 0;
#X connect 32 0 33 0;
#X connect 33 0 36 0;
#X connect 33 1 41 0;
#X connect 36 0 35 0;
#X connect 37 0 34 0;
#X connect 38 0 19 0;
#X connect 39 0 25 0;
#X connect 40 0 31 0;
#X connect 41 0 37 0;
#X connect 42 0 145 0;
#X connect 45 0 46 0;
#X connect 46 0 49 0;
#X connect 46 1 51 0;
#X connect 49 0 48 0;
#X connect 50 0 47 0;
#X connect 51 0 50 0;
#X connect 52 0 53 0;
#X connect 53 0 56 0;
#X connect 53 1 82 0;
#X connect 56 0 55 0;
#X connect 57 0 54 0;
#X connect 58 0 59 0;
#X connect 59 0 62 0;
#X connect 59 1 83 0;
#X connect 62 0 61 0;
#X connect 63 0 60 0;
#X connect 64 0 65 0;
#X connect 65 0 68 0;
#X connect 65 1 84 0;
#X connect 68 0 67 0;
#X connect 69 0 66 0;
#X connect 70 0 71 0;
#X connect 71 0 74 0;
#X connect 71 1 85 0;
#X connect 74 0 73 0;
#X connect 75 0 72 0;
#X connect 76 0 77 0;
#X connect 77 0 80 0;
#X connect 77 1 86 0;
#X connect 80 0 79 0;
#X connect 81 0 78 0;
#X connect 82 0 57 0;
#X connect 83 0 63 0;
#X connect 84 0 69 0;
#X connect 85 0 75 0;
#X connect 86 0 81 0;
#X connect 87 0 88 0;
#X connect 88 0 91 0;
#X connect 88 1 93 0;
#X connect 91 0 90 0;
#X connect 92 0 89 0;
#X connect 93 0 92 0;
#X connect 94 0 95 0;
#X connect 95 0 98 0;
#X connect 95 1 130 0;
#X connect 98 0 97 0;
#X connect 99 0 96 0;
#X connect 100 0 101 0;
#X connect 101 0 104 0;
#X connect 101 1 131 0;
#X connect 104 0 103 0;
#X connect 105 0 102 0;
#X connect 106 0 107 0;
#X connect 107 0 110 0;
#X connect 107 1 132 0;
#X connect 110 0 109 0;
#X connect 111 0 108 0;
#X connect 112 0 113 0;
#X connect 113 0 116 0;
#X connect 113 1 133 0;
#X connect 116 0 115 0;
#X connect 117 0 114 0;
#X connect 118 0 119 0;
#X connect 119 0 122 0;
#X connect 119 1 134 0;
#X connect 122 0 121 0;
#X connect 123 0 120 0;
#X connect 124 0 125 0;
#X connect 125 0 128 0;
#X connect 125 1 135 0;
#X connect 128 0 127 0;
#X connect 129 0 126 0;
#X connect 130 0 99 0;
#X connect 131 0 105 0;
#X connect 132 0 111 0;
#X connect 133 0 117 0;
#X connect 134 0 123 0;
#X connect 135 0 129 0;
#X connect 136 0 144 0;
#X connect 138 0 143 0;
#X connect 139 0 146 0;
#X connect 140 0 141 0;
#X connect 141 0 2 0;
#X connect 142 1 4 0;
#X connect 143 0 94 0;
#X connect 143 1 100 0;
#X connect 143 2 106 0;
#X connect 143 3 112 0;
#X connect 143 4 118 0;
#X connect 143 5 124 0;
#X connect 144 0 52 0;
#X connect 144 1 58 0;
#X connect 144 2 64 0;
#X connect 144 3 70 0;
#X connect 144 4 76 0;
#X connect 144 5 87 0;
#X connect 145 0 137 0;
#X connect 146 0 14 0;
#X connect 146 1 20 0;
#X connect 146 2 26 0;
#X connect 146 3 32 0;
#X connect 146 4 45 0;
